<mxfile host="Electron" modified="2023-06-22T07:37:34.467Z" agent="5.0 (Windows NT 10.0; Win64; x64) AppleWebKit/537.36 (KHTML, like Gecko) draw.io/19.0.2 Chrome/102.0.5005.63 Electron/19.0.3 Safari/537.36" etag="4EfsVzc-JzpjcZ_y5tUW" compressed="false" version="19.0.2" type="device">
  <diagram id="nNk9Rbr8bsMw7TYfAZ3T" name="Page-1">
    <mxGraphModel dx="1185" dy="714" grid="1" gridSize="10" guides="1" tooltips="1" connect="1" arrows="1" fold="1" page="1" pageScale="1" pageWidth="850" pageHeight="1100" math="0" shadow="0">
      <root>
        <object tooltip="" id="0">
          <ag_global_attributes>
            <ag_global_attribute name="Resources" value="" iconName="hammer" min="0" max="5" />
            <ag_global_attribute name="Knowledge" value="" iconName="lightbulb" min="0" max="5" />
            <ag_global_attribute name="Location" value="" iconName="map_pin_ellipse" min="0" max="1" />
            <ag_global_attribute name="Impact" value="" iconName="flame" min="0" max="5" />
          </ag_global_attributes>
          <ag_attributes />
          <ag_computed_attributes />
          <ag_aggregation_functions>
            <ag_aggregation_function name="default" id="6b1d22791hih8" default="activity_w;link" fn="function (collection) { &#10;    var result = null; &#10;    if (collection.childAttributes.length == 1) { &#10;        result = collection.childAttributes[0].attributes;&#10;        result._marking = collection.childAttributes[0].id;&#10;    } else { &#10;        var candidates = []; &#10;        var worstValue = 0; &#10;        collection.childAttributes.forEach(function(child) { &#10;            var value = parseInt(child.computedAttribute); &#10;            if (value &gt; worstValue) { &#10;                worstValue = value; &#10;                candidates = []; &#10;                candidates.push(child); &#10;            } else if (value == worstValue) { &#10;                candidates.push(child); &#10;            } &#10;        }); &#10;        var tiebreaker = function(candidates, name, max) { &#10;            var min_value = max; &#10;            candidates.forEach(function(node) { &#10;                min_value = Math.min(min_value, node.attributes[name]); &#10;            }); &#10;            result = []; &#10;            candidates.forEach(function(node) { &#10;                if (node.attributes[name] == min_value) { &#10;                    result.push(node); &#10;                } &#10;            }); &#10;            return result; &#10;        }; &#10;        if (candidates.length &gt; 1) { &#10;            candidates = tiebreaker(candidates, &quot;Resources&quot;, collection.globalAttributes[&quot;Resources&quot;].max); &#10;            if (candidates.length &gt; 1) { &#10;                candidates = tiebreaker(candidates, &quot;Knowledge&quot;, collection.globalAttributes[&quot;Knowledge&quot;].max); &#10;            } &#10;        } &#10;        result = candidates[0].attributes;&#10;        result._marking = candidates[0].id;&#10;    } &#10;    return result; &#10;}" />
            <ag_aggregation_function name="AND" id="gf0d4f199018" default="and" fn="function (collection) { &#10;    var result = {}; &#10;    var ids = [];&#10;    collection.childAttributes.forEach(function(child) { &#10;    for (var attribute in child.attributes) { &#10;            if (attribute in result) { &#10;                result[attribute] += parseInt(child.attributes[attribute]); &#10;            } else { &#10;                result[attribute] = parseInt(child.attributes[attribute]); &#10;            } &#10;        }&#10;        ids.push(child.id);&#10;    }); &#10;    for (var attribute in result) { &#10;        if (attribute in collection.globalAttributes) { &#10;            result[attribute] = Math.min(collection.globalAttributes[attribute].max, result[attribute]); &#10;        } &#10;    }&#10;    result._marking = ids.join(&quot;;&quot;);&#10;    return result; &#10;}" />
            <ag_aggregation_function name="Security Control" id="73f575i0ghij5" default="activity_g;activity_y" fn="function (collection) { &#10;    var result = {}; &#10;    for (var attribute in collection.localAttributes) { &#10;        result[attribute] = parseInt(collection.localAttributes[attribute]); &#10;    } &#10;    collection.childAttributes.forEach(function(child) { &#10;        for (var attribute in child.attributes) { &#10;            if (attribute in collection.globalAttributes) { &#10;                if (attribute in result) { &#10;                    result[attribute] += parseInt(child.attributes[attribute]); &#10;                } &#10;            } &#10;        } &#10;    }); &#10;    for (var attribute in result) { &#10;        if (attribute in collection.globalAttributes) { &#10;            result[attribute] = Math.min(collection.globalAttributes[attribute].max, result[attribute]); &#10;        } &#10;    } &#10;    return result; &#10;}" />
            <ag_aggregation_function name="Risk" id="egf49jfgj408" default="consequence" fn="function (collection) {  &#10;    var maxRisk = &quot;L&quot;; &#10;    var matrix = [ &#10;        [&quot;L&quot;, &quot;L&quot;, &quot;L&quot;, &quot;L&quot;, &quot;L&quot;], &#10;        [&quot;L&quot;, &quot;L&quot;, &quot;M&quot;, &quot;M&quot;, &quot;M&quot;], &#10;        [&quot;L&quot;, &quot;M&quot;, &quot;M&quot;, &quot;S&quot;, &quot;S&quot;], &#10;        [&quot;L&quot;, &quot;M&quot;, &quot;S&quot;, &quot;V&quot;, &quot;V&quot;], &#10;        [&quot;L&quot;, &quot;M&quot;, &quot;S&quot;, &quot;V&quot;, &quot;V&quot;], &#10;    ];&#10;    var updatedImpacts = [];&#10;    var ids = [];&#10; &#10;    var compareRisk = function(risk1, risk2) { &#10;        /*&#10;        * Returns:&#10;        *  - Null: if one of the parameters is not a character representing a risk&#10;        *  - Negativ integer: if risk1 &lt; risk2&#10;        *  - Zero: if risks are equal&#10;        *  - Positive integer: if risk1 &gt; risk2&#10;        */&#10;        var values = [&quot;L&quot;, &quot;M&quot;, &quot;S&quot;, &quot;V&quot;]; &#10;        var index_risk1 = values.indexOf(risk1); &#10;        var index_risk2 = values.indexOf(risk2); &#10; &#10;        if (index_risk1 == -1 || index_risk2 == -1) { &#10;            return null; &#10;        } &#10;        return index_risk1 - index_risk2; &#10; &#10;    } &#10;     &#10;    collection.childAttributes.forEach(function(child) {  &#10;        var impact = 1;  &#10;        if (child.edgeWeight !== null) {  &#10;            impact = parseInt(child.edgeWeight);  &#10;        }&#10;        var _impact = parseInt(child.attributes._impact) || 0;&#10;        impact = Math.max(impact - _impact, 1);&#10;        updatedImpacts.push(child.id + ':' + impact);&#10;        var af = parseInt(child.computedAttribute) || parseInt(child.attributes._af);&#10;        risk = matrix[af - 1][impact - 1];&#10;        result = compareRisk(risk, maxRisk);&#10;        if (result &gt; 0) { &#10;            maxRisk = risk;&#10;            ids = [child.id];&#10;        } else if (result == 0){&#10;            ids.push(child.id);&#10;        }&#10;    });  &#10;  &#10;    var result = {'_risk': maxRisk, &quot;_marking&quot;: ids.join(&quot;;&quot;)};&#10;    if (updatedImpacts.length &gt; 0) {&#10;        result._weight = updatedImpacts.join(';');&#10;    }&#10;    return result;&#10;}" />
            <ag_aggregation_function name="Impact" id="397423adceb0f" default="" fn="function(collection) {&#10;    var impact = 0;&#10;    var result = {}&#10;    &#10;    collection.childAttributes.forEach(function(child) {&#10;        if (&quot;Impact&quot; in child.attributes) {&#10;            impact += parseInt(child.attributes[&quot;Impact&quot;]);&#10;        } else if (&quot;Resources&quot; in child.attributes &amp;&amp; &quot;Knowledge&quot; in child.attributes &amp;&amp; &quot;Location&quot; in child.attributes) {&#10;            result._af = child.computedAttribute&#10;            result._marking = child.id;&#10;        }&#10;    });&#10;    result._impact = Math.min(impact, collection.globalAttributes[&quot;Impact&quot;].max);&#10;    &#10;    return result;&#10;}" />
          </ag_aggregation_functions>
          <ag_computed_attributes_functions>
            <ag_computed_attributes_function name="default" id="dbg60ff69g9a" default="activity_w;activity_g;activity_y" fn="function (collection) { &#10;    var colorMatrix = {&#10;        5: {&quot;fillColor&quot;: &quot;#cc0000&quot;, &quot;fontColor&quot;: &quot;#ffffff&quot;},&#10;        4: {&quot;fillColor&quot;: &quot;#ff4000&quot;, &quot;fontColor&quot;: &quot;#ffffff&quot;},&#10;        3: {&quot;fillColor&quot;: &quot;#ffdd00&quot;, &quot;fontColor&quot;: &quot;#000000&quot;},&#10;        2: {&quot;fillColor&quot;: &quot;#d4ff00&quot;, &quot;fontColor&quot;: &quot;#000000&quot;},&#10;        1: {&quot;fillColor&quot;: &quot;#40ff00&quot;, &quot;fontColor&quot;: &quot;#000000&quot;}&#10;    }&#10;    var matrix = [ &#10;        [5, 5, 4, 3, 2], &#10;        [5, 4, 4, 3, 2], &#10;        [5, 4, 4, 3, 2], &#10;        [4, 3, 3, 2, 1], &#10;        [3, 2, 2, 1, 1], &#10;    ];&#10;    var result = {};&#10;    &#10;    if (&quot;Knowledge&quot; in collection.cellAttributes &amp;&amp; &quot;Resources&quot; in collection.cellAttributes) {&#10;        var knowledgeIndex = parseInt(collection.cellAttributes[&quot;Knowledge&quot;]) - 1; &#10;        var resourcesIndex = parseInt(collection.cellAttributes[&quot;Resources&quot;]) - 1;&#10;        &#10;        var value = Math.min(5, &#10;            Math.max(collection.globalAttributes[&quot;Location&quot;].max, &#10;                Math.max( matrix[knowledgeIndex][resourcesIndex] - parseInt(collection.cellAttributes[&quot;Location&quot;])) &#10;            ));&#10;        result = colorMatrix[value] || result;&#10;        result[&quot;value&quot;] = value;&#10;    }&#10;    &#10;    return result;&#10;}" />
            <ag_computed_attributes_function name="Risk" id="6c831697g9i0a" default="" fn="function(collection){&#10;    var riskMatrix = {&#10;        &quot;V&quot;: {&quot;fillColor&quot;: &quot;#cc0000&quot;, &quot;fontColor&quot;: &quot;#ffffff&quot;},&#10;        &quot;S&quot;: {&quot;fillColor&quot;: &quot;#ff4000&quot;, &quot;fontColor&quot;: &quot;#ffffff&quot;},&#10;        &quot;M&quot;: {&quot;fillColor&quot;: &quot;#ffdd00&quot;, &quot;fontColor&quot;: &quot;#000000&quot;},&#10;        &quot;L&quot;: {&quot;fillColor&quot;: &quot;#40ff00&quot;, &quot;fontColor&quot;: &quot;#000000&quot;},&#10;    };&#10;    var result = {};&#10;    &#10;    if (&quot;_risk&quot; in collection.cellAttributes) {&#10;        var risk = collection.cellAttributes[&quot;_risk&quot;];&#10;        result = riskMatrix[risk] || result;&#10;        result[&quot;value&quot;] = risk;&#10;    }&#10;    &#10;    return result; &#10;}" />
          </ag_computed_attributes_functions>
          <mxCell />
        </object>
        <object id="1">
          <ag_attributes />
          <ag_computed_attributes />
          <mxCell parent="0" />
        </object>
        <object label="Financial Damage Individual" id="Czi3FkVOIS_JeKucCBtk-2">
          <ag_attributes _risk="L" _marking="Czi3FkVOIS_JeKucCBtk-7" _weight="Czi3FkVOIS_JeKucCBtk-7:2" />
          <ag_computed_attributes fillColor="#40ff00" fontColor="#000000" value="L" />
          <ag_computed_attributes_function_reference ag_computed_attributes_function_reference="6c831697g9i0a" />
          <ag_aggregation_function_reference ag_aggregation_function_reference="egf49jfgj408" />
          <mxCell style="verticalAlign=top;align=center;fillColor=#FFFFFF;gradientColor=none;labelBackgroundColor=none;rounded=1;whiteSpace=wrap;shape=attackgraphs.node;spacingRight=20;" parent="1" vertex="1">
            <mxGeometry x="745" y="80" width="180" height="48" as="geometry" />
          </mxCell>
        </object>
        <object label="2" id="jm9SPHePHSSqHUqD5Rmr-9">
          <ag_attributes />
          <ag_computed_attributes />
          <mxCell style="edgeStyle=none;rounded=0;orthogonalLoop=1;jettySize=auto;endFill=1;startSize=6;endSize=6;strokeWidth=2;verticalAlign=top;spacingRight=0;fontSize=15;strokeColor=#000000;" parent="1" source="Czi3FkVOIS_JeKucCBtk-3" target="Czi3FkVOIS_JeKucCBtk-8" edge="1">
            <mxGeometry relative="1" as="geometry" />
          </mxCell>
        </object>
        <object label="2" id="jm9SPHePHSSqHUqD5Rmr-10">
          <ag_attributes />
          <ag_computed_attributes />
          <mxCell style="edgeStyle=none;rounded=0;orthogonalLoop=1;jettySize=auto;endFill=1;startSize=6;endSize=6;strokeWidth=2;verticalAlign=top;spacingRight=0;fontSize=15;strokeColor=#000000;" parent="1" source="Czi3FkVOIS_JeKucCBtk-3" target="Czi3FkVOIS_JeKucCBtk-9" edge="1">
            <mxGeometry x="-0.4796" y="-3" relative="1" as="geometry">
              <mxPoint as="offset" />
            </mxGeometry>
          </mxCell>
        </object>
        <object label="Violation of Laws and Regulations" id="Czi3FkVOIS_JeKucCBtk-3">
          <ag_attributes _risk="L" _marking="Czi3FkVOIS_JeKucCBtk-8;Czi3FkVOIS_JeKucCBtk-9" _weight="Czi3FkVOIS_JeKucCBtk-8:2;Czi3FkVOIS_JeKucCBtk-9:2" />
          <ag_computed_attributes fillColor="#40ff00" fontColor="#000000" value="L" />
          <ag_computed_attributes_function_reference ag_computed_attributes_function_reference="6c831697g9i0a" />
          <ag_aggregation_function_reference ag_aggregation_function_reference="egf49jfgj408" />
          <mxCell style="verticalAlign=top;align=center;fillColor=#FFFFFF;gradientColor=none;labelBackgroundColor=none;rounded=1;whiteSpace=wrap;shape=attackgraphs.node;spacingRight=20;" parent="1" vertex="1">
            <mxGeometry x="2477.5" y="80" width="180" height="48" as="geometry" />
          </mxCell>
        </object>
        <object label="Financial Damage&#10;Operator" id="Czi3FkVOIS_JeKucCBtk-4">
          <ag_attributes _risk="L" _marking="Czi3FkVOIS_JeKucCBtk-7;6k28bXPKPwUyEk45xCLn-45" _weight="Czi3FkVOIS_JeKucCBtk-7:2;6k28bXPKPwUyEk45xCLn-45:1" />
          <ag_computed_attributes fillColor="#40ff00" fontColor="#000000" value="L" />
          <ag_computed_attributes_function_reference ag_computed_attributes_function_reference="6c831697g9i0a" />
          <ag_aggregation_function_reference ag_aggregation_function_reference="egf49jfgj408" />
          <mxCell style="verticalAlign=top;align=center;fillColor=#FFFFFF;gradientColor=none;labelBackgroundColor=none;rounded=1;whiteSpace=wrap;shape=attackgraphs.node;spacingRight=20;" parent="1" vertex="1">
            <mxGeometry x="1310" y="80" width="180" height="48" as="geometry" />
          </mxCell>
        </object>
        <object label="Reputational Damage Individual" id="Czi3FkVOIS_JeKucCBtk-5">
          <ag_attributes _risk="L" _marking="Czi3FkVOIS_JeKucCBtk-7" _weight="Czi3FkVOIS_JeKucCBtk-7:1" />
          <ag_computed_attributes fillColor="#40ff00" fontColor="#000000" value="L" />
          <ag_computed_attributes_function_reference ag_computed_attributes_function_reference="6c831697g9i0a" />
          <ag_aggregation_function_reference ag_aggregation_function_reference="egf49jfgj408" />
          <mxCell style="verticalAlign=top;align=center;fillColor=#FFFFFF;gradientColor=none;labelBackgroundColor=none;rounded=1;whiteSpace=wrap;shape=attackgraphs.node;spacingRight=20;" parent="1" vertex="1">
            <mxGeometry x="521" y="80" width="180" height="48" as="geometry" />
          </mxCell>
        </object>
        <object label="Manipulate Ticket Data" Resources="" Knowledge="" Location="" id="Czi3FkVOIS_JeKucCBtk-7">
          <ag_attributes label="NaN" Resources="4" Knowledge="5" Location="0" _marking="Czi3FkVOIS_JeKucCBtk-105" />
          <ag_computed_attributes fillColor="#40ff00" fontColor="#000000" value="1" />
          <ag_computed_attributes_function_reference ag_computed_attributes_function_reference="dbg60ff69g9a" />
          <ag_aggregation_function_reference ag_aggregation_function_reference="6b1d22791hih8" />
          <mxCell style="verticalAlign=top;align=center;fillColor=#FFFFFF;gradientColor=none;labelBackgroundColor=none;rounded=0;whiteSpace=wrap;shape=attackgraphs.node;spacingRight=20;" parent="1" vertex="1">
            <mxGeometry x="723" y="320" width="224" height="60" as="geometry" />
          </mxCell>
        </object>
        <object id="jm9SPHePHSSqHUqD5Rmr-5">
          <ag_attributes />
          <ag_computed_attributes />
          <mxCell style="edgeStyle=none;rounded=0;orthogonalLoop=1;jettySize=auto;endFill=1;startSize=6;endSize=6;strokeWidth=2;verticalAlign=top;spacingRight=20;strokeColor=#000000;" parent="1" source="Czi3FkVOIS_JeKucCBtk-8" target="Czi3FkVOIS_JeKucCBtk-23" edge="1">
            <mxGeometry relative="1" as="geometry" />
          </mxCell>
        </object>
        <object id="jm9SPHePHSSqHUqD5Rmr-12">
          <ag_attributes />
          <ag_computed_attributes />
          <mxCell style="edgeStyle=none;rounded=0;orthogonalLoop=1;jettySize=auto;entryX=0.483;entryY=0.057;entryDx=0;entryDy=0;entryPerimeter=0;endFill=1;startSize=6;endSize=6;strokeWidth=2;verticalAlign=top;spacingRight=20;strokeColor=#000000;" parent="1" source="Czi3FkVOIS_JeKucCBtk-8" target="Czi3FkVOIS_JeKucCBtk-26" edge="1">
            <mxGeometry relative="1" as="geometry" />
          </mxCell>
        </object>
        <object label="Disclosure of Private Data&#10;(Preferences, Habits)" Resources="" Knowledge="" Location="" id="Czi3FkVOIS_JeKucCBtk-8">
          <ag_attributes label="NaN" Resources="4" Knowledge="4" Location="1" _marking="Czi3FkVOIS_JeKucCBtk-26" />
          <ag_computed_attributes fillColor="#40ff00" fontColor="#000000" value="1" />
          <ag_computed_attributes_function_reference ag_computed_attributes_function_reference="dbg60ff69g9a" />
          <ag_aggregation_function_reference ag_aggregation_function_reference="6b1d22791hih8" />
          <mxCell style="verticalAlign=top;align=center;fillColor=#FFFFFF;gradientColor=none;labelBackgroundColor=none;rounded=0;whiteSpace=wrap;shape=attackgraphs.node;spacingRight=20;" parent="1" vertex="1">
            <mxGeometry x="2477.5" y="320" width="180" height="60" as="geometry" />
          </mxCell>
        </object>
        <object id="jm9SPHePHSSqHUqD5Rmr-6">
          <ag_attributes />
          <ag_computed_attributes />
          <mxCell style="edgeStyle=none;rounded=0;orthogonalLoop=1;jettySize=auto;endFill=1;startSize=6;endSize=6;strokeWidth=2;verticalAlign=top;spacingRight=20;strokeColor=#000000;" parent="1" source="Czi3FkVOIS_JeKucCBtk-9" target="Czi3FkVOIS_JeKucCBtk-21" edge="1">
            <mxGeometry relative="1" as="geometry" />
          </mxCell>
        </object>
        <object label="Stalk individual user" Resources="" Knowledge="" Location="" id="Czi3FkVOIS_JeKucCBtk-9">
          <ag_attributes label="NaN" Resources="4" Knowledge="4" Location="1" _marking="Czi3FkVOIS_JeKucCBtk-21" />
          <ag_computed_attributes fillColor="#40ff00" fontColor="#000000" value="1" />
          <ag_computed_attributes_function_reference ag_computed_attributes_function_reference="dbg60ff69g9a" />
          <ag_aggregation_function_reference ag_aggregation_function_reference="6b1d22791hih8" />
          <mxCell style="verticalAlign=top;align=center;fillColor=#FFFFFF;gradientColor=none;labelBackgroundColor=none;rounded=0;whiteSpace=wrap;shape=attackgraphs.node;spacingRight=20;" parent="1" vertex="1">
            <mxGeometry x="2790.5" y="320" width="180" height="60" as="geometry" />
          </mxCell>
        </object>
        <object label="2" id="Czi3FkVOIS_JeKucCBtk-13">
          <ag_attributes />
          <ag_computed_attributes />
          <mxCell style="endArrow=classic;rounded=0;spacingTop=0;spacingLeft=0;spacingBottom=0;spacingRight=0;endFill=1;endSize=6;startSize=6;strokeWidth=2;verticalAlign=top;fontSize=15;strokeColor=#000000;" parent="1" source="Czi3FkVOIS_JeKucCBtk-4" target="Czi3FkVOIS_JeKucCBtk-7" edge="1">
            <mxGeometry width="50" height="50" relative="1" as="geometry">
              <mxPoint x="2463.2000000000003" y="360" as="sourcePoint" />
              <mxPoint x="1976.7999999999997" y="207.9999999999999" as="targetPoint" />
            </mxGeometry>
          </mxCell>
        </object>
        <object label="2" id="Czi3FkVOIS_JeKucCBtk-14">
          <ag_attributes />
          <ag_computed_attributes />
          <mxCell style="endArrow=classic;rounded=0;spacingTop=0;spacingLeft=0;spacingBottom=0;spacingRight=0;endFill=1;endSize=6;startSize=6;strokeWidth=2;verticalAlign=top;fontSize=15;strokeColor=#000000;" parent="1" source="Czi3FkVOIS_JeKucCBtk-2" target="Czi3FkVOIS_JeKucCBtk-7" edge="1">
            <mxGeometry width="50" height="50" relative="1" as="geometry">
              <mxPoint x="2268.76" y="360" as="sourcePoint" />
              <mxPoint x="2495.24" y="207.9999999999999" as="targetPoint" />
            </mxGeometry>
          </mxCell>
        </object>
        <object id="jm9SPHePHSSqHUqD5Rmr-1">
          <ag_attributes />
          <ag_computed_attributes />
          <mxCell style="edgeStyle=none;rounded=0;orthogonalLoop=1;jettySize=auto;endFill=1;startSize=6;endSize=6;strokeWidth=2;verticalAlign=top;spacingRight=20;strokeColor=#000000;" parent="1" source="Czi3FkVOIS_JeKucCBtk-16" target="Czi3FkVOIS_JeKucCBtk-138" edge="1">
            <mxGeometry relative="1" as="geometry" />
          </mxCell>
        </object>
        <object id="jm9SPHePHSSqHUqD5Rmr-2">
          <ag_attributes />
          <ag_computed_attributes />
          <mxCell style="edgeStyle=none;rounded=0;orthogonalLoop=1;jettySize=auto;endFill=1;startSize=6;endSize=6;strokeWidth=2;verticalAlign=top;spacingRight=20;strokeColor=#000000;" parent="1" source="Czi3FkVOIS_JeKucCBtk-16" target="Czi3FkVOIS_JeKucCBtk-94" edge="1">
            <mxGeometry relative="1" as="geometry" />
          </mxCell>
        </object>
        <object id="jm9SPHePHSSqHUqD5Rmr-3">
          <ag_attributes />
          <ag_computed_attributes />
          <mxCell style="edgeStyle=none;rounded=0;orthogonalLoop=1;jettySize=auto;endFill=1;startSize=6;endSize=6;strokeWidth=2;verticalAlign=top;spacingRight=20;strokeColor=#000000;" parent="1" source="Czi3FkVOIS_JeKucCBtk-16" target="Czi3FkVOIS_JeKucCBtk-79" edge="1">
            <mxGeometry relative="1" as="geometry" />
          </mxCell>
        </object>
        <object id="jm9SPHePHSSqHUqD5Rmr-4">
          <ag_attributes />
          <ag_computed_attributes />
          <mxCell style="edgeStyle=none;rounded=0;orthogonalLoop=1;jettySize=auto;endFill=1;startSize=6;endSize=6;strokeWidth=2;verticalAlign=top;spacingRight=20;strokeColor=#000000;" parent="1" source="Czi3FkVOIS_JeKucCBtk-16" target="Czi3FkVOIS_JeKucCBtk-25" edge="1">
            <mxGeometry relative="1" as="geometry" />
          </mxCell>
        </object>
        <object label="Limit availability of the service" Resources="" Knowledge="" Location="" id="Czi3FkVOIS_JeKucCBtk-16">
          <ag_attributes label="NaN" Resources="5" Knowledge="3" Location="0" _marking="Czi3FkVOIS_JeKucCBtk-79" />
          <ag_computed_attributes fillColor="#d4ff00" fontColor="#000000" value="2" />
          <ag_computed_attributes_function_reference ag_computed_attributes_function_reference="dbg60ff69g9a" />
          <ag_aggregation_function_reference ag_aggregation_function_reference="6b1d22791hih8" />
          <mxCell style="verticalAlign=top;align=center;fillColor=#FFFFFF;gradientColor=none;labelBackgroundColor=none;rounded=0;whiteSpace=wrap;shape=attackgraphs.node;spacingRight=20;" parent="1" vertex="1">
            <mxGeometry x="1848" y="320" width="224" height="60" as="geometry" />
          </mxCell>
        </object>
        <object label="3" id="Czi3FkVOIS_JeKucCBtk-17">
          <ag_attributes />
          <ag_computed_attributes />
          <mxCell style="html=1;endArrow=classic;rounded=0;spacingTop=0;spacingLeft=0;spacingBottom=0;spacingRight=0;endFill=1;endSize=6;startSize=6;strokeWidth=2;verticalAlign=top;fontSize=15;strokeColor=#000000;" parent="1" source="Czi3FkVOIS_JeKucCBtk-4" target="6k28bXPKPwUyEk45xCLn-45" edge="1">
            <mxGeometry width="50" height="50" relative="1" as="geometry">
              <mxPoint x="2166.7000000000003" y="320" as="sourcePoint" />
              <mxPoint x="2375.3" y="208" as="targetPoint" />
            </mxGeometry>
          </mxCell>
        </object>
        <object label="1" id="Czi3FkVOIS_JeKucCBtk-20">
          <ag_attributes />
          <ag_computed_attributes />
          <mxCell style="endArrow=classic;rounded=0;spacingTop=0;spacingLeft=0;spacingBottom=0;spacingRight=0;endFill=1;endSize=6;startSize=6;strokeWidth=2;verticalAlign=top;fontSize=15;strokeColor=#000000;" parent="1" source="Czi3FkVOIS_JeKucCBtk-5" target="Czi3FkVOIS_JeKucCBtk-7" edge="1">
            <mxGeometry width="50" height="50" relative="1" as="geometry">
              <mxPoint x="2853.5" y="320" as="sourcePoint" />
              <mxPoint x="2818.5" y="208" as="targetPoint" />
            </mxGeometry>
          </mxCell>
        </object>
        <object label="Eavesdrop on communications" Resources="" Knowledge="" Location="" id="Czi3FkVOIS_JeKucCBtk-21">
          <ag_attributes label="NaN" Resources="4" Knowledge="4" Location="1" _marking="Czi3FkVOIS_JeKucCBtk-22" />
          <ag_computed_attributes fillColor="#40ff00" fontColor="#000000" value="1" />
          <ag_computed_attributes_function_reference ag_computed_attributes_function_reference="dbg60ff69g9a" />
          <ag_aggregation_function_reference ag_aggregation_function_reference="6b1d22791hih8" />
          <mxCell style="verticalAlign=top;align=center;fillColor=#FFFFFF;gradientColor=none;labelBackgroundColor=none;rounded=0;whiteSpace=wrap;shape=attackgraphs.node;spacingRight=20;" parent="1" vertex="1">
            <mxGeometry x="2690" y="480" width="160" height="60" as="geometry" />
          </mxCell>
        </object>
        <object id="DnPNwphCSTHKcsrJFPOQ-10">
          <ag_attributes />
          <ag_computed_attributes />
          <mxCell style="edgeStyle=none;shape=connector;rounded=0;orthogonalLoop=1;jettySize=auto;html=1;labelBackgroundColor=default;strokeColor=#000000;strokeWidth=2;fontFamily=Helvetica;fontSize=11;fontColor=default;startArrow=diamondThin;startFill=1;endArrow=none;endFill=0;" parent="1" source="Czi3FkVOIS_JeKucCBtk-22" target="DnPNwphCSTHKcsrJFPOQ-9" edge="1">
            <mxGeometry relative="1" as="geometry" />
          </mxCell>
        </object>
        <object label="Eavesdrop on personal device" Resources="2" Knowledge="2" Location="0" id="Czi3FkVOIS_JeKucCBtk-22">
          <ag_attributes label="NaN" Resources="4" Knowledge="4" Location="1" />
          <ag_computed_attributes fillColor="#40ff00" fontColor="#000000" value="1" />
          <ag_computed_attributes_function_reference ag_computed_attributes_function_reference="dbg60ff69g9a" />
          <ag_aggregation_function_reference ag_aggregation_function_reference="73f575i0ghij5" />
          <mxCell style="verticalAlign=top;align=center;fillColor=#fee599;gradientColor=none;labelBackgroundColor=none;rounded=0;whiteSpace=wrap;shape=attackgraphs.node;spacingRight=20;" parent="1" vertex="1">
            <mxGeometry x="2926" y="640" width="150" height="75" as="geometry" />
          </mxCell>
        </object>
        <object id="6k28bXPKPwUyEk45xCLn-15">
          <ag_attributes />
          <ag_computed_attributes />
          <mxCell style="edgeStyle=none;orthogonalLoop=1;jettySize=auto;html=1;strokeWidth=2;startArrow=diamondThin;startFill=1;endArrow=none;endFill=0;strokeColor=#000000;curved=1;" parent="1" source="Czi3FkVOIS_JeKucCBtk-23" target="hBg2pZH1YuUEVgYuRoB0-1" edge="1">
            <mxGeometry relative="1" as="geometry">
              <mxPoint x="2860" y="980" as="targetPoint" />
              <Array as="points">
                <mxPoint x="2860" y="760" />
              </Array>
            </mxGeometry>
          </mxCell>
        </object>
        <object id="6k28bXPKPwUyEk45xCLn-16">
          <ag_attributes />
          <ag_computed_attributes />
          <mxCell style="edgeStyle=none;orthogonalLoop=1;jettySize=auto;html=1;strokeWidth=2;startArrow=diamondThin;startFill=1;endArrow=none;endFill=0;exitX=0.75;exitY=1;exitDx=0;exitDy=0;strokeColor=#000000;curved=1;" parent="1" source="Czi3FkVOIS_JeKucCBtk-23" target="6k28bXPKPwUyEk45xCLn-12" edge="1">
            <mxGeometry relative="1" as="geometry">
              <Array as="points">
                <mxPoint x="3180" y="710" />
              </Array>
            </mxGeometry>
          </mxCell>
        </object>
        <object label="Correlate Data Sets" Resources="1" Knowledge="2" Location="0" id="Czi3FkVOIS_JeKucCBtk-23">
          <ag_attributes label="NaN" Resources="4" Knowledge="5" Location="0" />
          <ag_computed_attributes fillColor="#40ff00" fontColor="#000000" value="1" />
          <ag_computed_attributes_function_reference ag_computed_attributes_function_reference="dbg60ff69g9a" />
          <ag_aggregation_function_reference ag_aggregation_function_reference="73f575i0ghij5" />
          <mxCell style="verticalAlign=top;align=center;fillColor=#d7e3bf;gradientColor=none;labelBackgroundColor=none;rounded=0;whiteSpace=wrap;shape=attackgraphs.node;spacingRight=20;" parent="1" vertex="1">
            <mxGeometry x="2880" y="480" width="160" height="60" as="geometry" />
          </mxCell>
        </object>
        <object id="6k28bXPKPwUyEk45xCLn-23">
          <ag_attributes />
          <ag_computed_attributes />
          <mxCell style="edgeStyle=none;orthogonalLoop=1;jettySize=auto;html=1;strokeWidth=2;startArrow=diamondThin;startFill=1;endArrow=none;endFill=0;strokeColor=#000000;curved=1;" parent="1" source="Czi3FkVOIS_JeKucCBtk-24" target="6k28bXPKPwUyEk45xCLn-9" edge="1">
            <mxGeometry relative="1" as="geometry">
              <Array as="points">
                <mxPoint x="2280" y="760" />
              </Array>
            </mxGeometry>
          </mxCell>
        </object>
        <object label="Inject ransomware" Resources="2" Knowledge="3" Location="0" id="Czi3FkVOIS_JeKucCBtk-24">
          <ag_attributes label="NaN" Resources="4" Knowledge="5" Location="0" />
          <ag_computed_attributes fillColor="#40ff00" fontColor="#000000" value="1" />
          <ag_computed_attributes_function_reference ag_computed_attributes_function_reference="dbg60ff69g9a" />
          <ag_aggregation_function_reference ag_aggregation_function_reference="73f575i0ghij5" />
          <mxCell style="verticalAlign=top;align=center;fillColor=#d7e3bf;gradientColor=none;labelBackgroundColor=none;rounded=0;whiteSpace=wrap;shape=attackgraphs.node;spacingRight=20;" parent="1" vertex="1">
            <mxGeometry x="2310" y="640" width="150" height="75" as="geometry" />
          </mxCell>
        </object>
        <object label="Corrupt Data" Resources="" Knowledge="" Location="" id="Czi3FkVOIS_JeKucCBtk-25">
          <ag_attributes label="NaN" Resources="4" Knowledge="5" Location="0" _marking="Czi3FkVOIS_JeKucCBtk-24" />
          <ag_computed_attributes fillColor="#40ff00" fontColor="#000000" value="1" />
          <ag_computed_attributes_function_reference ag_computed_attributes_function_reference="dbg60ff69g9a" />
          <ag_aggregation_function_reference ag_aggregation_function_reference="6b1d22791hih8" />
          <mxCell style="verticalAlign=top;align=center;fillColor=#FFFFFF;gradientColor=none;labelBackgroundColor=none;rounded=0;whiteSpace=wrap;shape=attackgraphs.node;spacingRight=20;" parent="1" vertex="1">
            <mxGeometry x="2230" y="480" width="144" height="60" as="geometry" />
          </mxCell>
        </object>
        <object label="Extract Data" Resources="" Knowledge="" Location="" id="Czi3FkVOIS_JeKucCBtk-26">
          <ag_attributes label="NaN" Resources="4" Knowledge="4" Location="1" _marking="Czi3FkVOIS_JeKucCBtk-22" />
          <ag_computed_attributes fillColor="#40ff00" fontColor="#000000" value="1" />
          <ag_computed_attributes_function_reference ag_computed_attributes_function_reference="dbg60ff69g9a" />
          <ag_aggregation_function_reference ag_aggregation_function_reference="6b1d22791hih8" />
          <mxCell style="verticalAlign=top;align=center;fillColor=#FFFFFF;gradientColor=none;labelBackgroundColor=none;rounded=0;whiteSpace=wrap;shape=attackgraphs.node;spacingRight=20;" parent="1" vertex="1">
            <mxGeometry x="2477.5" y="480" width="144" height="60" as="geometry" />
          </mxCell>
        </object>
        <object id="6k28bXPKPwUyEk45xCLn-24">
          <ag_attributes />
          <ag_computed_attributes />
          <mxCell style="edgeStyle=none;orthogonalLoop=1;jettySize=auto;html=1;strokeWidth=2;startArrow=diamondThin;startFill=1;endArrow=none;endFill=0;strokeColor=#000000;curved=1;" parent="1" source="Czi3FkVOIS_JeKucCBtk-28" target="6k28bXPKPwUyEk45xCLn-9" edge="1">
            <mxGeometry relative="1" as="geometry">
              <Array as="points">
                <mxPoint x="2530" y="760" />
              </Array>
            </mxGeometry>
          </mxCell>
        </object>
        <object label="Inject malware" Resources="3" Knowledge="3" Location="0" id="Czi3FkVOIS_JeKucCBtk-28">
          <ag_attributes label="NaN" Resources="5" Knowledge="5" Location="0" />
          <ag_computed_attributes fillColor="#40ff00" fontColor="#000000" value="1" />
          <ag_computed_attributes_function_reference ag_computed_attributes_function_reference="dbg60ff69g9a" />
          <ag_aggregation_function_reference ag_aggregation_function_reference="73f575i0ghij5" />
          <mxCell style="verticalAlign=top;align=center;fillColor=#d7e3bf;gradientColor=none;labelBackgroundColor=none;rounded=0;whiteSpace=wrap;shape=attackgraphs.node;spacingRight=20;" parent="1" vertex="1">
            <mxGeometry x="2477.5" y="640" width="150" height="75" as="geometry" />
          </mxCell>
        </object>
        <object id="Czi3FkVOIS_JeKucCBtk-30">
          <ag_attributes />
          <ag_computed_attributes />
          <mxCell style="edgeStyle=none;startArrow=none;endArrow=classic;startSize=6;endSize=6;spacingTop=0;spacingBottom=0;spacingLeft=0;spacingRight=20;verticalAlign=top;labelBackgroundColor=#ffffff;rounded=0;entryX=0.5;entryY=0;entryDx=0;entryDy=0;entryPerimeter=0;endFill=1;strokeWidth=2;strokeColor=#000000;" parent="1" source="Czi3FkVOIS_JeKucCBtk-9" target="Czi3FkVOIS_JeKucCBtk-23" edge="1">
            <mxGeometry relative="1" as="geometry">
              <mxPoint as="offset" />
              <Array as="points" />
              <mxPoint x="2728" y="348" as="sourcePoint" />
            </mxGeometry>
          </mxCell>
        </object>
        <object label="" id="Czi3FkVOIS_JeKucCBtk-31">
          <ag_attributes />
          <ag_computed_attributes />
          <mxCell style="edgeStyle=none;startArrow=none;endArrow=classic;startSize=6;endSize=6;spacingTop=0;spacingBottom=0;spacingLeft=0;spacingRight=20;verticalAlign=top;labelBackgroundColor=#ffffff;rounded=0;align=center;entryX=0.4652777777777778;entryY=0;entryDx=0;entryDy=0;entryPerimeter=0;endFill=1;strokeWidth=2;strokeColor=#000000;" parent="1" source="Czi3FkVOIS_JeKucCBtk-26" target="Czi3FkVOIS_JeKucCBtk-28" edge="1">
            <mxGeometry relative="1" as="geometry">
              <mxPoint x="-1" y="-1" as="offset" />
              <Array as="points" />
            </mxGeometry>
          </mxCell>
        </object>
        <object label="" id="Czi3FkVOIS_JeKucCBtk-34">
          <ag_attributes />
          <ag_computed_attributes />
          <mxCell style="edgeStyle=none;startArrow=none;endArrow=classic;startSize=6;endSize=6;spacingTop=0;spacingBottom=0;spacingLeft=0;spacingRight=20;verticalAlign=top;labelBackgroundColor=#ffffff;rounded=0;align=center;entryX=0.6111111111111112;entryY=0;entryDx=0;entryDy=0;entryPerimeter=0;endFill=1;strokeWidth=2;strokeColor=#000000;" parent="1" source="Czi3FkVOIS_JeKucCBtk-26" target="Czi3FkVOIS_JeKucCBtk-24" edge="1">
            <mxGeometry relative="1" as="geometry">
              <mxPoint x="-1" as="offset" />
              <Array as="points" />
            </mxGeometry>
          </mxCell>
        </object>
        <object id="Czi3FkVOIS_JeKucCBtk-36">
          <ag_attributes />
          <ag_computed_attributes />
          <mxCell style="edgeStyle=none;startArrow=none;endArrow=classic;startSize=6;endSize=6;spacingTop=0;spacingBottom=0;spacingLeft=0;spacingRight=20;verticalAlign=top;labelBackgroundColor=#ffffff;rounded=0;entryX=0.4583333333333333;entryY=0;entryDx=0;entryDy=0;entryPerimeter=0;endFill=1;strokeWidth=2;strokeColor=#000000;" parent="1" source="Czi3FkVOIS_JeKucCBtk-25" target="Czi3FkVOIS_JeKucCBtk-24" edge="1">
            <mxGeometry relative="1" as="geometry">
              <mxPoint x="-1" y="-1" as="offset" />
              <Array as="points" />
            </mxGeometry>
          </mxCell>
        </object>
        <object id="Czi3FkVOIS_JeKucCBtk-39">
          <ag_attributes />
          <ag_computed_attributes />
          <mxCell style="edgeStyle=none;startArrow=none;endArrow=classic;startSize=6;endSize=6;spacingTop=0;spacingBottom=0;spacingLeft=0;spacingRight=20;verticalAlign=top;labelBackgroundColor=#ffffff;rounded=0;entryX=0.43125;entryY=0;entryDx=0;entryDy=0;entryPerimeter=0;endFill=1;strokeWidth=2;strokeColor=#000000;" parent="1" source="Czi3FkVOIS_JeKucCBtk-8" target="Czi3FkVOIS_JeKucCBtk-21" edge="1">
            <mxGeometry relative="1" as="geometry">
              <mxPoint x="-1" y="-1" as="offset" />
              <Array as="points" />
              <mxPoint x="2510.999999999999" y="348" as="sourcePoint" />
            </mxGeometry>
          </mxCell>
        </object>
        <object label="" id="Czi3FkVOIS_JeKucCBtk-40">
          <ag_attributes />
          <ag_computed_attributes />
          <mxCell style="edgeStyle=none;startArrow=none;endArrow=classic;startSize=6;endSize=6;spacingTop=0;spacingBottom=0;spacingLeft=0;spacingRight=20;verticalAlign=top;labelBackgroundColor=#ffffff;rounded=0;align=center;endFill=1;strokeWidth=2;strokeColor=#000000;" parent="1" source="Czi3FkVOIS_JeKucCBtk-21" target="Czi3FkVOIS_JeKucCBtk-75" edge="1">
            <mxGeometry x="0.5312" relative="1" as="geometry">
              <mxPoint as="offset" />
              <Array as="points" />
              <mxPoint x="2673" y="648" as="targetPoint" />
            </mxGeometry>
          </mxCell>
        </object>
        <object label="" id="Czi3FkVOIS_JeKucCBtk-41">
          <ag_attributes />
          <ag_computed_attributes />
          <mxCell style="edgeStyle=none;startArrow=none;endArrow=classic;startSize=6;endSize=6;spacingTop=0;spacingBottom=0;spacingLeft=0;spacingRight=20;verticalAlign=top;labelBackgroundColor=#ffffff;rounded=0;align=center;endFill=1;strokeWidth=2;strokeColor=#000000;" parent="1" source="Czi3FkVOIS_JeKucCBtk-21" target="Czi3FkVOIS_JeKucCBtk-22" edge="1">
            <mxGeometry relative="1" as="geometry">
              <mxPoint as="offset" />
              <Array as="points" />
            </mxGeometry>
          </mxCell>
        </object>
        <object label="" id="Czi3FkVOIS_JeKucCBtk-45">
          <ag_attributes />
          <ag_computed_attributes />
          <mxCell style="edgeStyle=none;startArrow=none;endArrow=classic;startSize=6;endSize=6;spacingTop=0;spacingBottom=0;spacingLeft=0;spacingRight=20;verticalAlign=top;labelBackgroundColor=#ffffff;rounded=0;align=center;exitX=0.69;exitY=1.033;exitDx=0;exitDy=0;exitPerimeter=0;entryX=0.049;entryY=0.035;entryDx=0;entryDy=0;entryPerimeter=0;endFill=1;strokeWidth=2;strokeColor=#000000;" parent="1" source="Czi3FkVOIS_JeKucCBtk-26" target="Czi3FkVOIS_JeKucCBtk-75" edge="1">
            <mxGeometry relative="1" as="geometry">
              <mxPoint x="-1" y="-1" as="offset" />
              <Array as="points" />
              <mxPoint x="2640" y="535" as="sourcePoint" />
              <mxPoint x="2638.5279999999993" y="648.6800000000001" as="targetPoint" />
            </mxGeometry>
          </mxCell>
        </object>
        <object label="" id="Czi3FkVOIS_JeKucCBtk-46">
          <ag_attributes />
          <ag_computed_attributes />
          <mxCell style="edgeStyle=none;startArrow=none;endArrow=classic;startSize=6;endSize=6;spacingTop=0;spacingBottom=0;spacingLeft=0;spacingRight=20;verticalAlign=top;labelBackgroundColor=#ffffff;rounded=0;align=center;endFill=1;strokeWidth=2;strokeColor=#000000;" parent="1" source="Czi3FkVOIS_JeKucCBtk-26" target="Czi3FkVOIS_JeKucCBtk-22" edge="1">
            <mxGeometry x="0.6488" y="-3" relative="1" as="geometry">
              <mxPoint as="offset" />
              <Array as="points" />
              <mxPoint x="2489.3600000000006" y="536.155" as="sourcePoint" />
              <mxPoint x="2648.5280000000002" y="658.6800000000001" as="targetPoint" />
            </mxGeometry>
          </mxCell>
        </object>
        <object id="6k28bXPKPwUyEk45xCLn-22">
          <ag_attributes />
          <ag_computed_attributes />
          <mxCell style="edgeStyle=none;rounded=0;orthogonalLoop=1;jettySize=auto;html=1;strokeWidth=2;startArrow=diamondThin;startFill=1;endArrow=none;endFill=0;verticalAlign=top;spacingRight=20;strokeColor=#000000;" parent="1" source="Czi3FkVOIS_JeKucCBtk-75" target="6k28bXPKPwUyEk45xCLn-19" edge="1">
            <mxGeometry relative="1" as="geometry" />
          </mxCell>
        </object>
        <object label="Eavesdropping on communication channels" Resources="2" Knowledge="2" Location="0" id="Czi3FkVOIS_JeKucCBtk-75">
          <ag_attributes label="NaN" Resources="5" Knowledge="5" Location="0" />
          <ag_computed_attributes fillColor="#40ff00" fontColor="#000000" value="1" />
          <ag_computed_attributes_function_reference ag_computed_attributes_function_reference="dbg60ff69g9a" />
          <ag_aggregation_function_reference ag_aggregation_function_reference="73f575i0ghij5" />
          <mxCell style="verticalAlign=top;align=center;fillColor=#fee599;gradientColor=none;labelBackgroundColor=none;rounded=0;whiteSpace=wrap;shape=attackgraphs.node;spacingRight=20;" parent="1" vertex="1">
            <mxGeometry x="2690" y="640" width="150" height="75" as="geometry" />
          </mxCell>
        </object>
        <object label="Limit availability of data" Resources="" Knowledge="" Location="" id="Czi3FkVOIS_JeKucCBtk-79">
          <ag_attributes label="NaN" Resources="5" Knowledge="3" Location="0" _marking="Czi3FkVOIS_JeKucCBtk-81" />
          <ag_computed_attributes fillColor="#d4ff00" fontColor="#000000" value="2" />
          <ag_computed_attributes_function_reference ag_computed_attributes_function_reference="dbg60ff69g9a" />
          <ag_aggregation_function_reference ag_aggregation_function_reference="6b1d22791hih8" />
          <mxCell style="verticalAlign=top;align=center;fillColor=#FFFFFF;gradientColor=none;labelBackgroundColor=none;rounded=0;whiteSpace=wrap;shape=attackgraphs.node;spacingRight=20;" parent="1" vertex="1">
            <mxGeometry x="1990" y="480" width="224" height="60" as="geometry" />
          </mxCell>
        </object>
        <object id="6k28bXPKPwUyEk45xCLn-27">
          <ag_attributes />
          <ag_computed_attributes />
          <mxCell style="edgeStyle=none;rounded=0;orthogonalLoop=1;jettySize=auto;html=1;strokeWidth=2;startArrow=diamondThin;startFill=1;endArrow=none;endFill=0;verticalAlign=top;spacingRight=20;strokeColor=#000000;" parent="1" source="Czi3FkVOIS_JeKucCBtk-80" target="6k28bXPKPwUyEk45xCLn-14" edge="1">
            <mxGeometry relative="1" as="geometry" />
          </mxCell>
        </object>
        <object label="Delete Data" Resources="3" Knowledge="3" Location="0" id="Czi3FkVOIS_JeKucCBtk-80">
          <ag_attributes label="NaN" Resources="5" Knowledge="5" Location="0" />
          <ag_computed_attributes fillColor="#40ff00" fontColor="#000000" value="1" />
          <ag_computed_attributes_function_reference ag_computed_attributes_function_reference="dbg60ff69g9a" />
          <ag_aggregation_function_reference ag_aggregation_function_reference="73f575i0ghij5" />
          <mxCell style="verticalAlign=top;align=center;fillColor=#d7e3bf;gradientColor=none;labelBackgroundColor=none;rounded=0;whiteSpace=wrap;shape=attackgraphs.node;spacingRight=20;" parent="1" vertex="1">
            <mxGeometry x="1952" y="640" width="150" height="75" as="geometry" />
          </mxCell>
        </object>
        <object id="6k28bXPKPwUyEk45xCLn-30">
          <ag_attributes />
          <ag_computed_attributes />
          <mxCell style="edgeStyle=none;rounded=0;orthogonalLoop=1;jettySize=auto;html=1;strokeWidth=2;startArrow=diamondThin;startFill=1;endArrow=none;endFill=0;verticalAlign=top;spacingRight=20;strokeColor=#000000;" parent="1" source="Czi3FkVOIS_JeKucCBtk-81" target="6k28bXPKPwUyEk45xCLn-29" edge="1">
            <mxGeometry relative="1" as="geometry" />
          </mxCell>
        </object>
        <object label="(D)DoS" Resources="2" Knowledge="2" Location="0" id="Czi3FkVOIS_JeKucCBtk-81">
          <ag_attributes label="NaN" Resources="5" Knowledge="3" Location="0" />
          <ag_computed_attributes fillColor="#d4ff00" fontColor="#000000" value="2" />
          <ag_computed_attributes_function_reference ag_computed_attributes_function_reference="dbg60ff69g9a" />
          <ag_aggregation_function_reference ag_aggregation_function_reference="73f575i0ghij5" />
          <mxCell style="verticalAlign=top;align=center;fillColor=#fee599;gradientColor=none;labelBackgroundColor=none;rounded=0;whiteSpace=wrap;shape=attackgraphs.node;spacingRight=20;" parent="1" vertex="1">
            <mxGeometry x="2132" y="640" width="150" height="75" as="geometry" />
          </mxCell>
        </object>
        <object label="" id="Czi3FkVOIS_JeKucCBtk-91">
          <ag_attributes />
          <ag_computed_attributes />
          <mxCell style="edgeStyle=none;startArrow=none;endArrow=classic;startSize=6;endSize=6;spacingTop=0;spacingBottom=0;spacingLeft=0;spacingRight=20;verticalAlign=top;labelBackgroundColor=#ffffff;rounded=0;align=center;exitX=0.44642857142857145;exitY=1.0208333333333333;exitDx=0;exitDy=0;exitPerimeter=0;entryX=0.575;entryY=0;entryDx=0;entryDy=0;entryPerimeter=0;endFill=1;strokeWidth=2;strokeColor=#000000;" parent="1" source="Czi3FkVOIS_JeKucCBtk-79" target="Czi3FkVOIS_JeKucCBtk-80" edge="1">
            <mxGeometry relative="1" as="geometry">
              <mxPoint x="-1" as="offset" />
              <Array as="points" />
            </mxGeometry>
          </mxCell>
        </object>
        <object label="" id="Czi3FkVOIS_JeKucCBtk-92">
          <ag_attributes />
          <ag_computed_attributes />
          <mxCell style="edgeStyle=none;startArrow=none;endArrow=classic;startSize=6;endSize=6;spacingTop=0;spacingBottom=0;spacingLeft=0;spacingRight=20;verticalAlign=top;labelBackgroundColor=#ffffff;rounded=0;align=center;exitX=0.5669642857142857;exitY=1.0208333333333333;exitDx=0;exitDy=0;exitPerimeter=0;entryX=0.4083333333333333;entryY=0;entryDx=0;entryDy=0;entryPerimeter=0;endFill=1;strokeWidth=2;strokeColor=#000000;" parent="1" source="Czi3FkVOIS_JeKucCBtk-79" target="Czi3FkVOIS_JeKucCBtk-81" edge="1">
            <mxGeometry relative="1" as="geometry">
              <mxPoint x="-1" y="-1" as="offset" />
              <Array as="points" />
            </mxGeometry>
          </mxCell>
        </object>
        <object label="Limit availability of the transmission network" Resources="" Knowledge="" Location="" id="Czi3FkVOIS_JeKucCBtk-94">
          <ag_attributes label="5" Resources="4" Knowledge="5" Location="1" _marking="Czi3FkVOIS_JeKucCBtk-95" />
          <ag_computed_attributes fillColor="#40ff00" fontColor="#000000" value="1" />
          <ag_computed_attributes_function_reference ag_computed_attributes_function_reference="dbg60ff69g9a" />
          <ag_aggregation_function_reference ag_aggregation_function_reference="6b1d22791hih8" />
          <mxCell style="verticalAlign=top;align=center;fillColor=#FFFFFF;gradientColor=none;labelBackgroundColor=none;rounded=0;whiteSpace=wrap;shape=attackgraphs.node;spacingRight=20;" parent="1" vertex="1">
            <mxGeometry x="1704" y="480" width="246" height="60" as="geometry" />
          </mxCell>
        </object>
        <object id="6k28bXPKPwUyEk45xCLn-26">
          <ag_attributes />
          <ag_computed_attributes />
          <mxCell style="edgeStyle=none;rounded=0;orthogonalLoop=1;jettySize=auto;html=1;strokeWidth=2;startArrow=diamondThin;startFill=1;endArrow=none;endFill=0;strokeColor=#000000;" parent="1" source="Czi3FkVOIS_JeKucCBtk-95" target="6k28bXPKPwUyEk45xCLn-25" edge="1">
            <mxGeometry relative="1" as="geometry" />
          </mxCell>
        </object>
        <object label="5G/FRMCS Jamming" Resources="2" Knowledge="2" Location="1" id="Czi3FkVOIS_JeKucCBtk-95">
          <ag_attributes label="5" Resources="4" Knowledge="5" Location="1" />
          <ag_computed_attributes fillColor="#40ff00" fontColor="#000000" value="1" />
          <ag_computed_attributes_function_reference ag_computed_attributes_function_reference="dbg60ff69g9a" />
          <ag_aggregation_function_reference ag_aggregation_function_reference="73f575i0ghij5" />
          <mxCell style="verticalAlign=top;align=center;fillColor=#fee599;gradientColor=none;labelBackgroundColor=none;rounded=0;whiteSpace=wrap;shape=attackgraphs.node;spacingRight=20;" parent="1" vertex="1">
            <mxGeometry x="1790" y="640" width="150" height="75" as="geometry" />
          </mxCell>
        </object>
        <object label="" id="Czi3FkVOIS_JeKucCBtk-96">
          <ag_attributes />
          <ag_computed_attributes />
          <mxCell style="edgeStyle=none;startArrow=none;endArrow=classic;startSize=6;endSize=6;spacingTop=0;spacingBottom=0;spacingLeft=0;spacingRight=20;verticalAlign=top;labelBackgroundColor=#ffffff;rounded=0;align=center;exitX=0.5625;exitY=1.0208333333333333;exitDx=0;exitDy=0;exitPerimeter=0;entryX=0.425;entryY=0;entryDx=0;entryDy=0;entryPerimeter=0;endFill=1;strokeWidth=2;strokeColor=#000000;" parent="1" source="Czi3FkVOIS_JeKucCBtk-94" target="Czi3FkVOIS_JeKucCBtk-95" edge="1">
            <mxGeometry relative="1" as="geometry">
              <mxPoint x="-1" y="-1" as="offset" />
              <Array as="points" />
            </mxGeometry>
          </mxCell>
        </object>
        <object label="2" id="jm9SPHePHSSqHUqD5Rmr-7">
          <ag_attributes />
          <ag_computed_attributes />
          <mxCell style="edgeStyle=none;rounded=0;orthogonalLoop=1;jettySize=auto;endFill=1;startSize=6;endSize=6;strokeWidth=2;verticalAlign=top;spacingRight=0;fontSize=15;strokeColor=#000000;" parent="1" source="Czi3FkVOIS_JeKucCBtk-102" target="Czi3FkVOIS_JeKucCBtk-9" edge="1">
            <mxGeometry relative="1" as="geometry" />
          </mxCell>
        </object>
        <object label="3" id="jm9SPHePHSSqHUqD5Rmr-8">
          <ag_attributes />
          <ag_computed_attributes />
          <mxCell style="edgeStyle=none;rounded=0;orthogonalLoop=1;jettySize=auto;endFill=1;startSize=6;endSize=6;strokeWidth=2;verticalAlign=top;spacingRight=0;fontSize=15;strokeColor=#000000;" parent="1" source="Czi3FkVOIS_JeKucCBtk-102" target="Czi3FkVOIS_JeKucCBtk-8" edge="1">
            <mxGeometry x="-0.4391" y="-2" relative="1" as="geometry">
              <mxPoint as="offset" />
            </mxGeometry>
          </mxCell>
        </object>
        <object label="Violation of Privacy" id="Czi3FkVOIS_JeKucCBtk-102">
          <ag_attributes _risk="L" _marking="Czi3FkVOIS_JeKucCBtk-9;Czi3FkVOIS_JeKucCBtk-8" _weight="Czi3FkVOIS_JeKucCBtk-9:2;Czi3FkVOIS_JeKucCBtk-8:3" />
          <ag_computed_attributes fillColor="#40ff00" fontColor="#000000" value="L" />
          <ag_computed_attributes_function_reference ag_computed_attributes_function_reference="6c831697g9i0a" />
          <ag_aggregation_function_reference ag_aggregation_function_reference="egf49jfgj408" />
          <mxCell style="verticalAlign=top;align=center;fillColor=#FFFFFF;gradientColor=none;labelBackgroundColor=none;rounded=1;whiteSpace=wrap;shape=attackgraphs.node;spacingRight=20;" parent="1" vertex="1">
            <mxGeometry x="2790.5" y="80" width="180" height="48" as="geometry" />
          </mxCell>
        </object>
        <object label="Manipulation of the data set" Resources="" Knowledge="" Location="" id="Czi3FkVOIS_JeKucCBtk-105">
          <ag_attributes label="NaN" Resources="4" Knowledge="5" Location="0" _marking="Czi3FkVOIS_JeKucCBtk-122" />
          <ag_computed_attributes fillColor="#40ff00" fontColor="#000000" value="1" />
          <ag_computed_attributes_function_reference ag_computed_attributes_function_reference="dbg60ff69g9a" />
          <ag_aggregation_function_reference ag_aggregation_function_reference="6b1d22791hih8" />
          <mxCell style="verticalAlign=top;align=center;fillColor=#FFFFFF;gradientColor=none;labelBackgroundColor=none;rounded=0;whiteSpace=wrap;shape=attackgraphs.node;spacingRight=20;" parent="1" vertex="1">
            <mxGeometry x="1001" y="480" width="224" height="60" as="geometry" />
          </mxCell>
        </object>
        <object label="Manipulation of transmission" Resources="" Knowledge="" Location="" id="Czi3FkVOIS_JeKucCBtk-106">
          <ag_attributes label="NaN" Resources="5" Knowledge="5" Location="1" _marking="Czi3FkVOIS_JeKucCBtk-114" />
          <ag_computed_attributes fillColor="#40ff00" fontColor="#000000" value="1" />
          <ag_computed_attributes_function_reference ag_computed_attributes_function_reference="dbg60ff69g9a" />
          <ag_aggregation_function_reference ag_aggregation_function_reference="6b1d22791hih8" />
          <ag_enabled ag_enabled="1" />
          <mxCell style="verticalAlign=top;align=center;gradientColor=none;labelBackgroundColor=none;rounded=0;whiteSpace=wrap;fillColor=#FFFFFF;shape=attackgraphs.node;spacingRight=20;" parent="1" vertex="1">
            <mxGeometry x="640" y="480" width="224" height="60" as="geometry" />
          </mxCell>
        </object>
        <object id="Czi3FkVOIS_JeKucCBtk-107">
          <ag_attributes />
          <ag_computed_attributes />
          <mxCell style="edgeStyle=none;startArrow=none;endArrow=classic;startSize=6;endSize=6;spacingTop=0;spacingBottom=0;spacingLeft=0;spacingRight=20;verticalAlign=top;labelBackgroundColor=#ffffff;rounded=0;endFill=1;strokeWidth=2;strokeColor=#000000;" parent="1" source="Czi3FkVOIS_JeKucCBtk-7" target="Czi3FkVOIS_JeKucCBtk-105" edge="1">
            <mxGeometry relative="1" as="geometry">
              <mxPoint y="-1" as="offset" />
              <Array as="points" />
              <mxPoint x="1094" y="385" as="sourcePoint" />
            </mxGeometry>
          </mxCell>
        </object>
        <object id="Czi3FkVOIS_JeKucCBtk-108">
          <ag_attributes />
          <ag_computed_attributes />
          <mxCell style="edgeStyle=none;startArrow=none;endArrow=classic;startSize=6;endSize=6;spacingTop=0;spacingBottom=0;spacingLeft=0;spacingRight=20;verticalAlign=top;labelBackgroundColor=#ffffff;rounded=0;endFill=1;strokeWidth=2;strokeColor=#000000;" parent="1" source="Czi3FkVOIS_JeKucCBtk-7" target="Czi3FkVOIS_JeKucCBtk-106" edge="1">
            <mxGeometry relative="1" as="geometry">
              <mxPoint as="offset" />
              <Array as="points" />
              <mxPoint x="1238" y="385" as="sourcePoint" />
            </mxGeometry>
          </mxCell>
        </object>
        <object id="6k28bXPKPwUyEk45xCLn-11">
          <ag_attributes />
          <ag_computed_attributes />
          <mxCell style="edgeStyle=none;orthogonalLoop=1;jettySize=auto;html=1;strokeWidth=2;startArrow=diamondThin;startFill=1;endArrow=none;endFill=0;verticalAlign=top;spacingRight=20;strokeColor=#000000;curved=1;" parent="1" source="Czi3FkVOIS_JeKucCBtk-111" target="6k28bXPKPwUyEk45xCLn-9" edge="1">
            <mxGeometry relative="1" as="geometry">
              <Array as="points">
                <mxPoint x="1270" y="790" />
              </Array>
            </mxGeometry>
          </mxCell>
        </object>
        <object label="Inject malware" Resources="3" Knowledge="3" Location="0" id="Czi3FkVOIS_JeKucCBtk-111">
          <ag_attributes label="NaN" Resources="5" Knowledge="5" Location="0" />
          <ag_computed_attributes fillColor="#40ff00" fontColor="#000000" value="1" />
          <ag_computed_attributes_function_reference ag_computed_attributes_function_reference="dbg60ff69g9a" />
          <ag_aggregation_function_reference ag_aggregation_function_reference="73f575i0ghij5" />
          <mxCell style="verticalAlign=top;align=center;fillColor=#d7e3bf;gradientColor=none;labelBackgroundColor=none;rounded=0;whiteSpace=wrap;shape=attackgraphs.node;spacingRight=20;" parent="1" vertex="1">
            <mxGeometry x="1110" y="640" width="150" height="75" as="geometry" />
          </mxCell>
        </object>
        <object label="" id="Czi3FkVOIS_JeKucCBtk-112">
          <ag_attributes />
          <ag_computed_attributes />
          <mxCell style="edgeStyle=none;startArrow=none;endArrow=classic;startSize=6;endSize=6;spacingTop=0;spacingBottom=0;spacingLeft=0;spacingRight=20;verticalAlign=top;labelBackgroundColor=#ffffff;rounded=0;align=center;endFill=1;strokeWidth=2;strokeColor=#000000;" parent="1" source="Czi3FkVOIS_JeKucCBtk-105" target="Czi3FkVOIS_JeKucCBtk-111" edge="1">
            <mxGeometry relative="1" as="geometry">
              <mxPoint x="-1" as="offset" />
              <Array as="points" />
              <mxPoint x="1423" y="677.4999999999998" as="sourcePoint" />
              <mxPoint x="1451" y="720" as="targetPoint" />
            </mxGeometry>
          </mxCell>
        </object>
        <object id="6k28bXPKPwUyEk45xCLn-41">
          <ag_attributes />
          <ag_computed_attributes />
          <mxCell style="edgeStyle=none;rounded=0;orthogonalLoop=1;jettySize=auto;html=1;strokeWidth=2;startArrow=diamondThin;startFill=1;endArrow=none;endFill=0;strokeColor=#000000;" parent="1" source="Czi3FkVOIS_JeKucCBtk-114" target="6k28bXPKPwUyEk45xCLn-2" edge="1">
            <mxGeometry relative="1" as="geometry" />
          </mxCell>
        </object>
        <object id="6k28bXPKPwUyEk45xCLn-42">
          <ag_attributes />
          <ag_computed_attributes />
          <mxCell style="edgeStyle=none;rounded=0;orthogonalLoop=1;jettySize=auto;html=1;strokeWidth=2;startArrow=diamondThin;startFill=1;endArrow=none;endFill=0;strokeColor=#000000;" parent="1" source="Czi3FkVOIS_JeKucCBtk-114" target="6k28bXPKPwUyEk45xCLn-1" edge="1">
            <mxGeometry relative="1" as="geometry" />
          </mxCell>
        </object>
        <object id="DnPNwphCSTHKcsrJFPOQ-8">
          <ag_attributes />
          <ag_computed_attributes />
          <mxCell style="edgeStyle=none;shape=connector;orthogonalLoop=1;jettySize=auto;html=1;labelBackgroundColor=default;strokeColor=#000000;strokeWidth=2;fontFamily=Helvetica;fontSize=11;fontColor=default;startArrow=diamondThin;startFill=1;endArrow=none;endFill=0;curved=1;" parent="1" source="Czi3FkVOIS_JeKucCBtk-114" target="DnPNwphCSTHKcsrJFPOQ-3" edge="1">
            <mxGeometry relative="1" as="geometry">
              <Array as="points">
                <mxPoint x="810" y="820" />
              </Array>
            </mxGeometry>
          </mxCell>
        </object>
        <object label="Manipulate FRMCS Communication" Resources="3" Knowledge="3" Location="0" id="Czi3FkVOIS_JeKucCBtk-114">
          <ag_computed_attributes_function_reference ag_computed_attributes_function_reference="dbg60ff69g9a" />
          <ag_attributes label="NaN" Resources="5" Knowledge="5" Location="1" />
          <ag_computed_attributes fillColor="#40ff00" fontColor="#000000" value="1" />
          <ag_aggregation_function_reference ag_aggregation_function_reference="73f575i0ghij5" />
          <ag_enabled ag_enabled="1" />
          <mxCell style="verticalAlign=top;align=center;fillColor=#fee599;gradientColor=none;labelBackgroundColor=none;rounded=0;whiteSpace=wrap;shape=attackgraphs.node;spacingRight=20;" parent="1" vertex="1">
            <mxGeometry x="601" y="640" width="150" height="75" as="geometry" />
          </mxCell>
        </object>
        <object id="6k28bXPKPwUyEk45xCLn-39">
          <ag_attributes />
          <ag_computed_attributes />
          <mxCell style="edgeStyle=none;rounded=0;orthogonalLoop=1;jettySize=auto;html=1;strokeWidth=2;startArrow=diamondThin;startFill=1;endArrow=none;endFill=0;strokeColor=#000000;" parent="1" source="Czi3FkVOIS_JeKucCBtk-115" target="6k28bXPKPwUyEk45xCLn-1" edge="1">
            <mxGeometry relative="1" as="geometry" />
          </mxCell>
        </object>
        <object id="6k28bXPKPwUyEk45xCLn-40">
          <ag_attributes />
          <ag_computed_attributes />
          <mxCell style="edgeStyle=none;rounded=0;orthogonalLoop=1;jettySize=auto;html=1;strokeWidth=2;startArrow=diamondThin;startFill=1;endArrow=none;endFill=0;strokeColor=#000000;" parent="1" source="Czi3FkVOIS_JeKucCBtk-115" target="6k28bXPKPwUyEk45xCLn-2" edge="1">
            <mxGeometry relative="1" as="geometry" />
          </mxCell>
        </object>
        <object id="DnPNwphCSTHKcsrJFPOQ-7">
          <ag_attributes />
          <ag_computed_attributes />
          <mxCell style="edgeStyle=none;shape=connector;rounded=0;orthogonalLoop=1;jettySize=auto;html=1;labelBackgroundColor=default;strokeColor=#000000;strokeWidth=2;fontFamily=Helvetica;fontSize=11;fontColor=default;startArrow=diamondThin;startFill=1;endArrow=none;endFill=0;" parent="1" source="Czi3FkVOIS_JeKucCBtk-115" target="DnPNwphCSTHKcsrJFPOQ-3" edge="1">
            <mxGeometry relative="1" as="geometry" />
          </mxCell>
        </object>
        <object label="Manipulate Wireless Near Field Communication" Resources="2" Knowledge="3" Location="0" id="Czi3FkVOIS_JeKucCBtk-115">
          <ag_computed_attributes_function_reference ag_computed_attributes_function_reference="dbg60ff69g9a" />
          <ag_attributes label="NaN" Resources="5" Knowledge="5" Location="1" />
          <ag_computed_attributes fillColor="#40ff00" fontColor="#000000" value="1" />
          <ag_aggregation_function_reference ag_aggregation_function_reference="73f575i0ghij5" />
          <mxCell style="verticalAlign=top;align=center;fillColor=#fee599;gradientColor=none;labelBackgroundColor=none;rounded=0;whiteSpace=wrap;shape=attackgraphs.node;spacingRight=20;" parent="1" vertex="1">
            <mxGeometry x="761" y="640" width="150" height="75" as="geometry" />
          </mxCell>
        </object>
        <object id="Czi3FkVOIS_JeKucCBtk-116">
          <ag_attributes />
          <ag_computed_attributes />
          <mxCell style="edgeStyle=none;startArrow=none;endArrow=classic;startSize=6;endSize=6;spacingTop=0;spacingBottom=0;spacingLeft=0;spacingRight=20;verticalAlign=top;labelBackgroundColor=#ffffff;rounded=0;endFill=1;strokeWidth=2;strokeColor=#000000;" parent="1" source="Czi3FkVOIS_JeKucCBtk-106" target="Czi3FkVOIS_JeKucCBtk-114" edge="1">
            <mxGeometry relative="1" as="geometry">
              <mxPoint as="offset" />
              <Array as="points" />
              <mxPoint x="1087.0242857142855" y="538" as="sourcePoint" />
              <mxPoint x="950.9957142857143" y="630" as="targetPoint" />
            </mxGeometry>
          </mxCell>
        </object>
        <object id="Czi3FkVOIS_JeKucCBtk-117">
          <ag_attributes />
          <ag_computed_attributes />
          <mxCell style="edgeStyle=none;startArrow=none;endArrow=classic;startSize=6;endSize=6;spacingTop=0;spacingBottom=0;spacingLeft=0;spacingRight=20;verticalAlign=top;labelBackgroundColor=#ffffff;rounded=0;endFill=1;strokeWidth=2;strokeColor=#000000;" parent="1" source="Czi3FkVOIS_JeKucCBtk-106" target="Czi3FkVOIS_JeKucCBtk-115" edge="1">
            <mxGeometry relative="1" as="geometry">
              <mxPoint as="offset" />
              <Array as="points" />
              <mxPoint x="1107.101045296167" y="548.0000000000001" as="sourcePoint" />
              <mxPoint x="1028.7491289198604" y="647.5" as="targetPoint" />
            </mxGeometry>
          </mxCell>
        </object>
        <object id="6k28bXPKPwUyEk45xCLn-4">
          <ag_attributes />
          <ag_computed_attributes />
          <mxCell style="rounded=0;orthogonalLoop=1;jettySize=auto;html=1;strokeWidth=2;startArrow=diamondThin;startFill=1;endArrow=none;endFill=0;strokeColor=#000000;" parent="1" source="Czi3FkVOIS_JeKucCBtk-119" target="6k28bXPKPwUyEk45xCLn-35" edge="1">
            <mxGeometry relative="1" as="geometry" />
          </mxCell>
        </object>
        <object id="DnPNwphCSTHKcsrJFPOQ-2">
          <ag_attributes />
          <ag_computed_attributes />
          <mxCell style="rounded=0;orthogonalLoop=1;jettySize=auto;html=1;strokeWidth=2;strokeColor=#000000;endArrow=none;startArrow=diamondThin;startFill=1;endFill=0;" parent="1" source="Czi3FkVOIS_JeKucCBtk-119" target="DnPNwphCSTHKcsrJFPOQ-12" edge="1">
            <mxGeometry relative="1" as="geometry" />
          </mxCell>
        </object>
        <object label="GNSS&#10;Spoofing" Resources="3" Knowledge="3" Location="1" id="Czi3FkVOIS_JeKucCBtk-119">
          <ag_computed_attributes_function_reference ag_computed_attributes_function_reference="dbg60ff69g9a" />
          <ag_attributes label="NaN" Resources="5" Knowledge="5" Location="1" />
          <ag_computed_attributes fillColor="#40ff00" fontColor="#000000" value="1" />
          <ag_aggregation_function_reference ag_aggregation_function_reference="73f575i0ghij5" />
          <mxCell style="verticalAlign=top;align=center;fillColor=#fee599;gradientColor=none;labelBackgroundColor=none;rounded=0;whiteSpace=wrap;shape=attackgraphs.node;spacingRight=20;" parent="1" vertex="1">
            <mxGeometry x="380" y="640" width="150" height="60" as="geometry" />
          </mxCell>
        </object>
        <object id="Czi3FkVOIS_JeKucCBtk-120">
          <ag_attributes />
          <ag_computed_attributes />
          <mxCell style="edgeStyle=none;startArrow=none;endArrow=classic;startSize=6;endSize=6;spacingTop=0;spacingBottom=0;spacingLeft=0;spacingRight=20;verticalAlign=top;labelBackgroundColor=#ffffff;rounded=0;endFill=1;strokeWidth=2;strokeColor=#000000;" parent="1" source="Czi3FkVOIS_JeKucCBtk-152" target="Czi3FkVOIS_JeKucCBtk-119" edge="1">
            <mxGeometry relative="1" as="geometry">
              <mxPoint as="offset" />
              <Array as="points" />
              <mxPoint x="801.1710452961672" y="545" as="sourcePoint" />
              <mxPoint x="722.8191289198605" y="644.5" as="targetPoint" />
            </mxGeometry>
          </mxCell>
        </object>
        <object id="Czi3FkVOIS_JeKucCBtk-121">
          <ag_attributes />
          <ag_computed_attributes />
          <mxCell style="edgeStyle=none;startArrow=none;endArrow=classic;startSize=6;endSize=6;spacingTop=0;spacingBottom=0;spacingLeft=0;spacingRight=20;verticalAlign=top;labelBackgroundColor=#ffffff;rounded=0;endFill=1;strokeWidth=2;strokeColor=#000000;" parent="1" source="Czi3FkVOIS_JeKucCBtk-7" target="Czi3FkVOIS_JeKucCBtk-152" edge="1">
            <mxGeometry relative="1" as="geometry">
              <mxPoint as="offset" />
              <Array as="points" />
              <mxPoint x="1297.514285714286" y="358" as="sourcePoint" />
              <mxPoint x="1161.4857142857145" y="450" as="targetPoint" />
            </mxGeometry>
          </mxCell>
        </object>
        <object id="6k28bXPKPwUyEk45xCLn-10">
          <ag_attributes />
          <ag_computed_attributes />
          <mxCell style="edgeStyle=none;orthogonalLoop=1;jettySize=auto;html=1;strokeWidth=2;startArrow=diamondThin;startFill=1;endArrow=none;endFill=0;verticalAlign=top;spacingRight=20;strokeColor=#000000;curved=1;" parent="1" source="Czi3FkVOIS_JeKucCBtk-122" target="6k28bXPKPwUyEk45xCLn-9" edge="1">
            <mxGeometry relative="1" as="geometry">
              <Array as="points">
                <mxPoint x="1150" y="790" />
              </Array>
            </mxGeometry>
          </mxCell>
        </object>
        <object label="Insert and Exploit Backdoors" Resources="2" Knowledge="2" Location="0" id="Czi3FkVOIS_JeKucCBtk-122">
          <ag_attributes label="NaN" Resources="4" Knowledge="5" Location="0" />
          <ag_computed_attributes fillColor="#40ff00" fontColor="#000000" value="1" />
          <ag_computed_attributes_function_reference ag_computed_attributes_function_reference="dbg60ff69g9a" />
          <ag_aggregation_function_reference ag_aggregation_function_reference="73f575i0ghij5" />
          <mxCell style="verticalAlign=top;align=center;fillColor=#d7e3bf;gradientColor=none;labelBackgroundColor=none;rounded=0;whiteSpace=wrap;shape=attackgraphs.node;spacingRight=20;" parent="1" vertex="1">
            <mxGeometry x="947" y="640" width="150" height="75" as="geometry" />
          </mxCell>
        </object>
        <object id="Czi3FkVOIS_JeKucCBtk-123">
          <ag_attributes />
          <ag_computed_attributes />
          <mxCell style="edgeStyle=none;startArrow=none;endArrow=classic;startSize=6;endSize=6;spacingTop=0;spacingBottom=0;spacingLeft=0;spacingRight=20;verticalAlign=top;labelBackgroundColor=#ffffff;rounded=0;endFill=1;strokeWidth=2;strokeColor=#000000;" parent="1" source="Czi3FkVOIS_JeKucCBtk-105" target="Czi3FkVOIS_JeKucCBtk-122" edge="1">
            <mxGeometry relative="1" as="geometry">
              <mxPoint as="offset" />
              <Array as="points" />
              <mxPoint x="998" y="542" as="sourcePoint" />
            </mxGeometry>
          </mxCell>
        </object>
        <object label="Manipulation of Sensors" Resources="" Knowledge="" Location="" id="Czi3FkVOIS_JeKucCBtk-138">
          <ag_attributes label="NaN" Resources="4" Knowledge="5" Location="1" _marking="Czi3FkVOIS_JeKucCBtk-141" />
          <ag_computed_attributes fillColor="#40ff00" fontColor="#000000" value="1" />
          <ag_computed_attributes_function_reference ag_computed_attributes_function_reference="dbg60ff69g9a" />
          <ag_aggregation_function_reference ag_aggregation_function_reference="6b1d22791hih8" />
          <mxCell style="verticalAlign=top;align=center;gradientColor=none;labelBackgroundColor=none;rounded=0;whiteSpace=wrap;fillColor=#FFFFFF;shape=attackgraphs.node;spacingRight=20;" parent="1" vertex="1">
            <mxGeometry x="1400" y="480" width="224" height="60" as="geometry" />
          </mxCell>
        </object>
        <object id="6k28bXPKPwUyEk45xCLn-37">
          <ag_attributes />
          <ag_computed_attributes />
          <mxCell style="edgeStyle=none;rounded=0;orthogonalLoop=1;jettySize=auto;html=1;strokeWidth=2;startArrow=diamondThin;startFill=1;endArrow=none;endFill=0;strokeColor=#000000;" parent="1" source="Czi3FkVOIS_JeKucCBtk-139" target="6k28bXPKPwUyEk45xCLn-35" edge="1">
            <mxGeometry relative="1" as="geometry" />
          </mxCell>
        </object>
        <object id="DnPNwphCSTHKcsrJFPOQ-4">
          <ag_attributes />
          <ag_computed_attributes />
          <mxCell style="edgeStyle=none;rounded=0;orthogonalLoop=1;jettySize=auto;html=1;strokeWidth=2;strokeColor=#000000;endArrow=none;startArrow=diamondThin;startFill=1;endFill=0;" parent="1" source="Czi3FkVOIS_JeKucCBtk-139" target="DnPNwphCSTHKcsrJFPOQ-3" edge="1">
            <mxGeometry relative="1" as="geometry" />
          </mxCell>
        </object>
        <object label="Manipulate cameras" Resources="3" Knowledge="2" Location="1" id="Czi3FkVOIS_JeKucCBtk-139">
          <ag_attributes label="NaN" Resources="5" Knowledge="5" Location="1" />
          <ag_computed_attributes fillColor="#40ff00" fontColor="#000000" value="1" />
          <ag_computed_attributes_function_reference ag_computed_attributes_function_reference="dbg60ff69g9a" />
          <ag_aggregation_function_reference ag_aggregation_function_reference="73f575i0ghij5" />
          <mxCell style="verticalAlign=top;align=center;gradientColor=none;labelBackgroundColor=none;rounded=0;whiteSpace=wrap;fillColor=#FEE599;shape=attackgraphs.node;spacingRight=20;" parent="1" vertex="1">
            <mxGeometry x="1300" y="640" width="150" height="75" as="geometry" />
          </mxCell>
        </object>
        <object id="6k28bXPKPwUyEk45xCLn-38">
          <ag_attributes />
          <ag_computed_attributes />
          <mxCell style="edgeStyle=none;rounded=0;orthogonalLoop=1;jettySize=auto;html=1;strokeWidth=2;startArrow=diamondThin;startFill=1;endArrow=none;endFill=0;strokeColor=#000000;" parent="1" source="Czi3FkVOIS_JeKucCBtk-141" target="6k28bXPKPwUyEk45xCLn-25" edge="1">
            <mxGeometry relative="1" as="geometry" />
          </mxCell>
        </object>
        <object label="GNSS&#10;Jamming" Resources="2" Knowledge="2" Location="1" id="Czi3FkVOIS_JeKucCBtk-141">
          <ag_attributes label="NaN" Resources="4" Knowledge="5" Location="1" />
          <ag_computed_attributes fillColor="#40ff00" fontColor="#000000" value="1" />
          <ag_computed_attributes_function_reference ag_computed_attributes_function_reference="dbg60ff69g9a" />
          <ag_aggregation_function_reference ag_aggregation_function_reference="73f575i0ghij5" />
          <mxCell style="verticalAlign=top;align=center;fillColor=#fee599;gradientColor=none;labelBackgroundColor=none;rounded=0;whiteSpace=wrap;shape=attackgraphs.node;spacingRight=20;" parent="1" vertex="1">
            <mxGeometry x="1616" y="640" width="150" height="75" as="geometry" />
          </mxCell>
        </object>
        <object id="6k28bXPKPwUyEk45xCLn-36">
          <ag_attributes />
          <ag_computed_attributes />
          <mxCell style="edgeStyle=none;rounded=0;orthogonalLoop=1;jettySize=auto;html=1;strokeWidth=2;startArrow=diamondThin;startFill=1;endArrow=none;endFill=0;strokeColor=#000000;" parent="1" source="Czi3FkVOIS_JeKucCBtk-142" target="6k28bXPKPwUyEk45xCLn-35" edge="1">
            <mxGeometry relative="1" as="geometry" />
          </mxCell>
        </object>
        <object id="DnPNwphCSTHKcsrJFPOQ-6">
          <ag_attributes />
          <ag_computed_attributes />
          <mxCell style="edgeStyle=none;shape=connector;rounded=0;orthogonalLoop=1;jettySize=auto;html=1;labelBackgroundColor=default;strokeColor=#000000;strokeWidth=2;fontFamily=Helvetica;fontSize=11;fontColor=default;startArrow=diamondThin;startFill=1;endArrow=none;endFill=0;" parent="1" source="Czi3FkVOIS_JeKucCBtk-142" target="DnPNwphCSTHKcsrJFPOQ-3" edge="1">
            <mxGeometry relative="1" as="geometry" />
          </mxCell>
        </object>
        <object label="Block&#10;Passenger Counting" Resources="2" Knowledge="2" Location="1" id="Czi3FkVOIS_JeKucCBtk-142">
          <ag_attributes label="NaN" Resources="5" Knowledge="5" Location="1" />
          <ag_computed_attributes fillColor="#40ff00" fontColor="#000000" value="1" />
          <ag_computed_attributes_function_reference ag_computed_attributes_function_reference="dbg60ff69g9a" />
          <ag_aggregation_function_reference ag_aggregation_function_reference="73f575i0ghij5" />
          <mxCell style="verticalAlign=top;align=center;fillColor=#d7e3bf;gradientColor=none;labelBackgroundColor=none;rounded=0;whiteSpace=wrap;shape=attackgraphs.node;spacingRight=20;portConstraint=south;" parent="1" vertex="1">
            <mxGeometry x="1460" y="640" width="150" height="75" as="geometry" />
          </mxCell>
        </object>
        <object id="Czi3FkVOIS_JeKucCBtk-143">
          <ag_attributes />
          <ag_computed_attributes />
          <mxCell style="edgeStyle=none;startArrow=none;endArrow=classic;startSize=6;endSize=6;spacingTop=0;spacingBottom=0;spacingLeft=0;spacingRight=20;verticalAlign=top;labelBackgroundColor=#ffffff;rounded=0;entryX=0.612;entryY=-0.034;entryDx=0;entryDy=0;entryPerimeter=0;endFill=1;strokeWidth=2;strokeColor=#000000;" parent="1" source="Czi3FkVOIS_JeKucCBtk-138" target="Czi3FkVOIS_JeKucCBtk-139" edge="1">
            <mxGeometry relative="1" as="geometry">
              <mxPoint x="-1" y="-1" as="offset" />
              <Array as="points" />
              <mxPoint x="1820" y="852" as="sourcePoint" />
            </mxGeometry>
          </mxCell>
        </object>
        <object id="Czi3FkVOIS_JeKucCBtk-147">
          <ag_attributes />
          <ag_computed_attributes />
          <mxCell style="edgeStyle=none;startArrow=none;endArrow=classic;startSize=6;endSize=6;spacingTop=0;spacingBottom=0;spacingLeft=0;spacingRight=20;verticalAlign=top;labelBackgroundColor=#ffffff;rounded=0;endFill=1;strokeWidth=2;strokeColor=#000000;" parent="1" source="Czi3FkVOIS_JeKucCBtk-138" target="Czi3FkVOIS_JeKucCBtk-141" edge="1">
            <mxGeometry relative="1" as="geometry">
              <mxPoint y="-1" as="offset" />
              <Array as="points" />
              <mxPoint x="1761" y="852" as="targetPoint" />
              <mxPoint x="1678" y="590" as="sourcePoint" />
            </mxGeometry>
          </mxCell>
        </object>
        <object id="Czi3FkVOIS_JeKucCBtk-149">
          <ag_attributes />
          <ag_computed_attributes />
          <mxCell style="edgeStyle=none;startArrow=none;endArrow=classic;startSize=6;endSize=6;spacingTop=0;spacingBottom=0;spacingLeft=0;spacingRight=20;verticalAlign=top;labelBackgroundColor=#ffffff;rounded=0;endFill=1;strokeWidth=2;strokeColor=#000000;" parent="1" source="Czi3FkVOIS_JeKucCBtk-138" target="Czi3FkVOIS_JeKucCBtk-142" edge="1">
            <mxGeometry relative="1" as="geometry">
              <mxPoint x="-1" y="-1" as="offset" />
              <Array as="points" />
              <mxPoint x="1560" y="650" as="targetPoint" />
            </mxGeometry>
          </mxCell>
        </object>
        <object label="Manipulate personal devices" Resources="" Knowledge="" Location="" id="Czi3FkVOIS_JeKucCBtk-152">
          <ag_attributes label="NaN" Resources="5" Knowledge="5" Location="1" _marking="Czi3FkVOIS_JeKucCBtk-119" />
          <ag_computed_attributes fillColor="#40ff00" fontColor="#000000" value="1" />
          <ag_computed_attributes_function_reference ag_computed_attributes_function_reference="dbg60ff69g9a" />
          <ag_aggregation_function_reference ag_aggregation_function_reference="6b1d22791hih8" />
          <mxCell style="verticalAlign=top;align=center;fillColor=#FFFFFF;gradientColor=none;labelBackgroundColor=none;rounded=0;whiteSpace=wrap;shape=attackgraphs.node;spacingRight=20;" parent="1" vertex="1">
            <mxGeometry x="290.00000000000006" y="472.5" width="150" height="75" as="geometry" />
          </mxCell>
        </object>
        <object id="6k28bXPKPwUyEk45xCLn-6">
          <ag_attributes />
          <ag_computed_attributes />
          <mxCell style="edgeStyle=none;rounded=0;orthogonalLoop=1;jettySize=auto;html=1;strokeWidth=2;startArrow=diamondThin;startFill=1;endArrow=none;endFill=0;strokeColor=#000000;" parent="1" source="Czi3FkVOIS_JeKucCBtk-155" target="6k28bXPKPwUyEk45xCLn-1" edge="1">
            <mxGeometry relative="1" as="geometry" />
          </mxCell>
        </object>
        <object id="6k28bXPKPwUyEk45xCLn-8">
          <ag_attributes />
          <ag_computed_attributes />
          <mxCell style="edgeStyle=none;rounded=0;orthogonalLoop=1;jettySize=auto;html=1;strokeWidth=2;startArrow=diamondThin;startFill=1;endArrow=none;endFill=0;strokeColor=#000000;" parent="1" source="Czi3FkVOIS_JeKucCBtk-155" target="6k28bXPKPwUyEk45xCLn-7" edge="1">
            <mxGeometry relative="1" as="geometry" />
          </mxCell>
        </object>
        <object label="Manipulate ticket" Resources="2" Knowledge="2" Location="0" id="Czi3FkVOIS_JeKucCBtk-155">
          <ag_computed_attributes_function_reference ag_computed_attributes_function_reference="dbg60ff69g9a" />
          <ag_attributes label="NaN" Resources="5" Knowledge="5" Location="1" />
          <ag_computed_attributes fillColor="#40ff00" fontColor="#000000" value="1" />
          <ag_aggregation_function_reference ag_aggregation_function_reference="73f575i0ghij5" />
          <mxCell style="verticalAlign=top;align=center;fillColor=#fee599;gradientColor=none;labelBackgroundColor=none;rounded=0;whiteSpace=wrap;shape=attackgraphs.node;spacingRight=20;" parent="1" vertex="1">
            <mxGeometry x="210" y="640" width="150" height="60" as="geometry" />
          </mxCell>
        </object>
        <object id="Czi3FkVOIS_JeKucCBtk-156">
          <ag_attributes />
          <ag_computed_attributes />
          <mxCell style="edgeStyle=none;startArrow=none;endArrow=classic;startSize=6;endSize=6;spacingTop=0;spacingBottom=0;spacingLeft=0;spacingRight=20;verticalAlign=top;labelBackgroundColor=#ffffff;rounded=0;endFill=1;strokeWidth=2;strokeColor=#000000;" parent="1" source="Czi3FkVOIS_JeKucCBtk-152" target="Czi3FkVOIS_JeKucCBtk-155" edge="1">
            <mxGeometry relative="1" as="geometry">
              <mxPoint y="-1" as="offset" />
              <Array as="points" />
              <mxPoint x="490.28" y="558" as="sourcePoint" />
              <mxPoint x="393.72" y="660" as="targetPoint" />
            </mxGeometry>
          </mxCell>
        </object>
        <object label="Attack Target&#10;Contactless Ticket Control" id="Zq65Q2nqjFuZndYNnhfk-1">
          <ag_attributes />
          <ag_computed_attributes />
          <mxCell style="verticalAlign=middle;align=center;fillColor=#FFFFFF;gradientColor=none;labelBackgroundColor=none;rounded=0;whiteSpace=wrap;shape=trapezoid;size=0.07500000000000001;" parent="1" vertex="1">
            <mxGeometry x="1600" y="10" width="300" height="60" as="geometry" />
          </mxCell>
        </object>
        <object label="Digital Signature" Resources="2" Knowledge="2" Location="1" id="6k28bXPKPwUyEk45xCLn-1">
          <ag_attributes />
          <ag_computed_attributes />
          <ag_enabled ag_enabled="1" />
          <mxCell style="shape=attackgraphs.node;fillColor=#DAE8FC;verticalAlign=top;align=left;spacingLeft=2;" parent="1" vertex="1">
            <mxGeometry x="420" y="840" width="150" height="90" as="geometry" />
          </mxCell>
        </object>
        <object label="Plausibility Check&#10;Security Logging" Resources="3" Knowledge="2" Location="0" id="6k28bXPKPwUyEk45xCLn-2">
          <ag_attributes />
          <ag_computed_attributes />
          <mxCell style="shape=attackgraphs.node;fillColor=#DAE8FC;verticalAlign=top;align=left;spacingLeft=2;" parent="1" vertex="1">
            <mxGeometry x="576" y="1000" width="214" height="75" as="geometry" />
          </mxCell>
        </object>
        <object label="" id="6k28bXPKPwUyEk45xCLn-3">
          <ag_attributes />
          <ag_computed_attributes />
          <mxCell style="endArrow=none;dashed=1;html=1;rounded=0;strokeWidth=1;fillColor=#dae8fc;strokeColor=#000000;" parent="1" edge="1">
            <mxGeometry width="50" height="50" relative="1" as="geometry">
              <mxPoint x="181" y="950" as="sourcePoint" />
              <mxPoint x="3341.4285714285716" y="950" as="targetPoint" />
            </mxGeometry>
          </mxCell>
        </object>
        <object label="Multi-factor authentication&#10;Code Signing" Resources="1" Knowledge="2" Location="0" id="6k28bXPKPwUyEk45xCLn-7">
          <ag_attributes />
          <ag_computed_attributes />
          <mxCell style="shape=attackgraphs.node;fillColor=#DAE8FC;verticalAlign=top;align=left;spacingLeft=2;" parent="1" vertex="1">
            <mxGeometry x="190" y="840" width="170" height="90" as="geometry" />
          </mxCell>
        </object>
        <object label="Malware Protection&#10;Firewall&#10;Vulnerabilityscans&#10;Penetration testing&#10;Awareness Training&#10;Backups" Resources="2" Knowledge="3" Location="0" id="6k28bXPKPwUyEk45xCLn-9">
          <ag_attributes />
          <ag_computed_attributes />
          <mxCell style="shape=attackgraphs.node;fillColor=#DAE8FC;align=left;verticalAlign=top;spacingLeft=2;" parent="1" vertex="1">
            <mxGeometry x="1430" y="810" width="210" height="112.5" as="geometry" />
          </mxCell>
        </object>
        <object label="Privacy Enhancing Technologies" Resources="2" Knowledge="2" Location="0" id="6k28bXPKPwUyEk45xCLn-12">
          <ag_attributes />
          <ag_computed_attributes />
          <ag_enabled ag_enabled="1" />
          <mxCell style="shape=attackgraphs.node;fillColor=#DAE8FC;verticalAlign=top;align=left;spacingLeft=2;" parent="1" vertex="1">
            <mxGeometry x="3086" y="1000" width="208" height="75" as="geometry" />
          </mxCell>
        </object>
        <object label="Access Control&#10;Secure Data Storage&#10;Backups" Resources="2" Knowledge="2" Location="0" id="6k28bXPKPwUyEk45xCLn-14">
          <ag_attributes />
          <ag_computed_attributes />
          <mxCell style="shape=attackgraphs.node;fillColor=#DAE8FC;verticalAlign=top;align=left;spacingLeft=2;" parent="1" vertex="1">
            <mxGeometry x="1952" y="832.5" width="150" height="90" as="geometry" />
          </mxCell>
        </object>
        <object label="Encryption" Resources="5" Knowledge="3" Location="0" id="6k28bXPKPwUyEk45xCLn-19">
          <ag_attributes />
          <ag_computed_attributes />
          <mxCell style="shape=attackgraphs.node;fillColor=#DAE8FC;verticalAlign=top;align=left;spacingLeft=2;" parent="1" vertex="1">
            <mxGeometry x="2670" y="840" width="150" height="90" as="geometry" />
          </mxCell>
        </object>
        <object label="Resilience" Resources="2" Knowledge="3" Location="0" id="6k28bXPKPwUyEk45xCLn-25">
          <ag_attributes />
          <ag_computed_attributes />
          <ag_enabled ag_enabled="1" />
          <mxCell style="shape=attackgraphs.node;fillColor=#DAE8FC;verticalAlign=top;align=left;spacingLeft=2;" parent="1" vertex="1">
            <mxGeometry x="1746" y="1000" width="150" height="75" as="geometry" />
          </mxCell>
        </object>
        <object label="Redundancy&#10;Scalability&#10;Physical Access Control&#10;Access Control" Resources="3" Knowledge="1" Location="0" id="6k28bXPKPwUyEk45xCLn-29">
          <ag_attributes />
          <ag_computed_attributes />
          <mxCell style="shape=attackgraphs.node;fillColor=#DAE8FC;align=left;verticalAlign=top;spacingLeft=2;" parent="1" vertex="1">
            <mxGeometry x="2132" y="832.5" width="150" height="90" as="geometry" />
          </mxCell>
        </object>
        <object label="Integrity Protection of Environment Monitoring&#10;Plausibility Check" Resources="2" Knowledge="2" Location="0" id="6k28bXPKPwUyEk45xCLn-35">
          <ag_attributes />
          <ag_computed_attributes />
          <ag_enabled ag_enabled="1" />
          <mxCell style="shape=attackgraphs.node;fillColor=#DAE8FC;verticalAlign=top;align=left;spacingLeft=2;" parent="1" vertex="1">
            <mxGeometry x="976" y="1000" width="210" height="75" as="geometry" />
          </mxCell>
        </object>
        <object label="Business Continuity Management" Impact="2" id="6k28bXPKPwUyEk45xCLn-43">
          <ag_attributes />
          <ag_computed_attributes />
          <ag_enabled ag_enabled="1" />
          <mxCell style="shape=attackgraphs.node;fillColor=#DAE8FC;fontSize=12;align=left;verticalAlign=top;spacingLeft=2;whiteSpace=wrap;" parent="1" vertex="1">
            <mxGeometry x="1832" y="150" width="120" height="65" as="geometry" />
          </mxCell>
        </object>
        <object id="6k28bXPKPwUyEk45xCLn-44">
          <ag_attributes />
          <ag_computed_attributes />
          <mxCell style="edgeStyle=none;rounded=0;orthogonalLoop=1;jettySize=auto;html=1;strokeWidth=2;startArrow=diamondThin;startFill=1;endArrow=none;endFill=0;verticalAlign=top;spacingRight=20;strokeColor=#000000;" parent="1" source="6k28bXPKPwUyEk45xCLn-45" target="6k28bXPKPwUyEk45xCLn-43" edge="1">
            <mxGeometry relative="1" as="geometry" />
          </mxCell>
        </object>
        <object id="6k28bXPKPwUyEk45xCLn-46">
          <ag_attributes />
          <ag_computed_attributes />
          <mxCell style="edgeStyle=none;rounded=0;orthogonalLoop=1;jettySize=auto;html=1;strokeWidth=2;exitX=1;exitY=0.75;exitDx=0;exitDy=0;startArrow=none;startFill=0;endArrow=classic;endFill=1;verticalAlign=top;spacingRight=20;strokeColor=#000000;" parent="1" source="6k28bXPKPwUyEk45xCLn-45" target="Czi3FkVOIS_JeKucCBtk-16" edge="1">
            <mxGeometry relative="1" as="geometry" />
          </mxCell>
        </object>
        <object label="" id="6k28bXPKPwUyEk45xCLn-45">
          <ag_attributes _af="2" _marking="Czi3FkVOIS_JeKucCBtk-16" _impact="2" />
          <ag_computed_attributes />
          <ag_aggregation_function_reference ag_aggregation_function_reference="397423adceb0f" />
          <mxCell style="shape=attackgraphs.node;allowArrows=0;verticalAlign=top;spacingRight=0;fontSize=15;" parent="1" vertex="1">
            <mxGeometry x="1745" y="270" width="21" height="20" as="geometry" />
          </mxCell>
        </object>
        <object label="Data Minimization" Resources="1" Knowledge="1" Location="0" id="hBg2pZH1YuUEVgYuRoB0-1">
          <ag_attributes />
          <ag_computed_attributes />
          <ag_enabled ag_enabled="1" />
          <mxCell style="shape=attackgraphs.node;fillColor=#DAE8FC;verticalAlign=top;align=left;spacingLeft=2;" parent="1" vertex="1">
            <mxGeometry x="2756" y="1000" width="150" height="75" as="geometry" />
          </mxCell>
        </object>
        <object id="hBg2pZH1YuUEVgYuRoB0-2">
          <ag_attributes />
          <ag_computed_attributes />
          <mxCell style="rounded=0;orthogonalLoop=1;jettySize=auto;html=1;strokeWidth=2;startArrow=none;startFill=0;endArrow=none;endFill=0;strokeColor=#000000;align=left;verticalAlign=top;spacingLeft=2;" parent="1" source="6k28bXPKPwUyEk45xCLn-9" target="hBg2pZH1YuUEVgYuRoB0-3" edge="1">
            <mxGeometry relative="1" as="geometry">
              <mxPoint x="1131.635922330097" y="925" as="sourcePoint" />
            </mxGeometry>
          </mxCell>
        </object>
        <object label="Responsiveness to security vulnerabilities" id="hBg2pZH1YuUEVgYuRoB0-3">
          <ag_attributes />
          <ag_computed_attributes />
          <mxCell style="shape=attackgraphs.node;fillColor=#DAE8FC;verticalAlign=top;align=left;spacingLeft=2;" parent="1" vertex="1">
            <mxGeometry x="1420" y="1000" width="230" height="75" as="geometry" />
          </mxCell>
        </object>
        <object label="Redundancy" Resources="1" Knowledge="1" Location="0" id="DnPNwphCSTHKcsrJFPOQ-3">
          <ag_attributes />
          <ag_computed_attributes />
          <mxCell style="shape=attackgraphs.node;fillColor=#DAE8FC;verticalAlign=top;align=left;spacingLeft=2;" parent="1" vertex="1">
            <mxGeometry x="990" y="840" width="150" height="75" as="geometry" />
          </mxCell>
        </object>
        <object label="Restrictid Permissions&#10;Malware Protection" Resources="2" Knowledge="2" Location="1" id="DnPNwphCSTHKcsrJFPOQ-9">
          <ag_attributes />
          <ag_computed_attributes />
          <mxCell style="shape=attackgraphs.node;fillColor=#DAE8FC;verticalAlign=top;align=left;spacingLeft=2;" parent="1" vertex="1">
            <mxGeometry x="2916" y="847.5" width="170" height="75" as="geometry" />
          </mxCell>
        </object>
        <object label="Resilience" Resources="2" Knowledge="3" Location="0" id="DnPNwphCSTHKcsrJFPOQ-12">
          <ag_attributes />
          <ag_computed_attributes />
          <ag_enabled ag_enabled="1" />
          <mxCell style="shape=attackgraphs.node;fillColor=#DAE8FC;verticalAlign=top;align=left;spacingLeft=2;" parent="1" vertex="1">
            <mxGeometry x="260" y="1000" width="150" height="75" as="geometry" />
          </mxCell>
        </object>
        <object label="Hardened Device" id="W8hVxle58rm_PR8Nmm3J-1">
          <ag_attributes />
          <ag_computed_attributes />
          <mxCell style="shape=attackgraphs.node;fillColor=#DAE8FC;verticalAlign=top;align=left;spacingLeft=2;" parent="1" vertex="1">
            <mxGeometry x="2936" y="1000" width="130" height="60" as="geometry" />
          </mxCell>
        </object>
        <object id="W8hVxle58rm_PR8Nmm3J-2">
          <ag_attributes />
          <ag_computed_attributes />
          <mxCell style="rounded=0;orthogonalLoop=1;jettySize=auto;html=1;strokeWidth=2;startArrow=none;startFill=0;endArrow=none;endFill=0;strokeColor=#000000;align=left;verticalAlign=top;spacingLeft=2;" parent="1" source="DnPNwphCSTHKcsrJFPOQ-9" target="W8hVxle58rm_PR8Nmm3J-1" edge="1">
            <mxGeometry relative="1" as="geometry">
              <mxPoint x="1131.635922330097" y="925" as="sourcePoint" />
            </mxGeometry>
          </mxCell>
        </object>
      </root>
    </mxGraphModel>
  </diagram>
</mxfile>